<svg clip-rule="evenodd" fill-rule="evenodd" stroke-linejoin="round" stroke-miterlimit="2" viewBox="0 0 263 84" xmlns="http://www.w3.org/2000/svg" xmlns:xlink="http://www.w3.org/1999/xlink"><radialGradient id="a" cx="0" cy="0" gradientTransform="matrix(51.4626 0 0 55.0967 37.72 41.583)" gradientUnits="userSpaceOnUse" r="1"><stop offset="0" stop-color="#ba7bf0"/><stop offset=".43" stop-color="#996bec"/><stop offset="1" stop-color="#5046e4"/></radialGradient><path d="m177.073 64.696-11.489-24.422c-.959-2.035-1.531-2.778-2.49-3.641l-.934-.837c-.745-.717-1.234-1.381-1.234-2.169 0-1.129.901-2.08 2.541-2.08h9.974c1.567 0 2.541.809 2.541 2.016 0 .674-.312 1.179-.706 1.674-.468.59-1.077 1.164-1.077 2.21 0 .655.193 1.31.563 2.145l6.856 15.942 6.15-15.542c.379-1.033.637-1.943.637-2.673 0-1.134-.62-1.597-1.099-2.103-.416-.441-.75-.907-.75-1.653 0-1.219.998-2.016 2.343-2.016h6.143c1.723 0 2.541.885 2.541 2.016 0 .724-.42 1.393-1.246 2.118l-.869.709c-1.21.982-1.77 2.401-2.405 3.869l-9.314 22.283c-1.101 2.605-2.74 6.221-5.242 9.188-2.542 3.013-5.971 5.356-10.614 5.356-3.888 0-6.241-1.842-6.241-4.499 0-2.433 1.813-4.372 4.193-4.372 1.305 0 1.982.612 2.671 1.241.569.519 1.146 1.051 2.283 1.051 1.057 0 2.04-.443 2.931-1.159 1.361-1.093 2.501-2.815 3.343-4.652zm67.511-.088c5.172 0 9.409-1.759 12.715-5.269 3.302-3.507 4.953-7.727 4.953-12.661 0-4.816-1.569-8.773-4.698-11.876-3.126-3.099-7.184-4.656-12.176-4.656-5.259 0-9.56 1.695-12.907 5.073-3.35 3.38-5.026 7.475-5.026 12.286 0 4.767 1.599 8.808 4.791 12.123 3.194 3.317 7.31 4.98 12.348 4.98zm-43.729-.382c2.991 0 5.117-1.999 5.117-4.88 0-2.815-2.196-4.818-5.117-4.818-3.06 0-5.249 2.006-5.249 4.818 0 2.878 2.191 4.88 5.249 4.88zm-81.945-19.352v9.888c0 1.491.297 2.867 1.534 3.999l.799.77c.895.862 1.167 1.379 1.167 2.17 0 1.207-.975 2.017-2.541 2.017h-11.097c-1.565 0-2.541-.81-2.541-2.017 0-.938.278-1.382 1.172-2.175l.798-.767c.927-.835 1.532-1.971 1.532-3.997v-26.419c0-1.609-.359-2.925-1.534-3.998l-.801-.771c-.822-.792-1.167-1.313-1.167-2.107 0-1.279.978-2.08 2.541-2.08h29.726c1.136 0 2.135.252 2.772.873.444.431.727 1.04.759 1.886l.463 6.814c.046.852-.207 1.562-.702 2-.341.302-.8.482-1.376.482-.729 0-1.286-.273-1.784-.744-.448-.423-.847-1.018-1.296-1.717-1.086-1.723-1.592-2.342-2.749-3.148-1.611-1.18-4.065-1.585-8.704-1.585-2.678 0-4.367.115-5.431.388-.688.176-1.086.405-1.298.741-.218.345-.242.779-.242 1.311v13.389h6.971c1.668 0 2.842-.298 4.201-2.145l.008-.009c.545-.69.938-1.197 1.313-1.533.437-.393.857-.577 1.414-.577 1.046 0 2.012.852 2.012 2.016v9.23c0 1.237-.969 2.08-2.012 2.08-.518 0-.94-.183-1.378-.567-.377-.33-.772-.823-1.285-1.482-1.488-1.911-2.538-2.216-4.273-2.216zm92.593 14.785.727-.764c.867-.836 1.145-1.68 1.145-4.006v-13.75c0-2.011-.275-2.909-1.134-3.677l-.857-.763c-.838-.734-1.114-1.192-1.114-1.926 0-1.044.816-1.901 2.127-2.197l5.812-1.401c.557-.134 1.183-.265 1.671-.265.668 0 1.215.219 1.599.598.384.38.611.926.611 1.61v21.771c0 2.197.268 3.217 1.192 3.989l.041.04.651.752c.815.789 1.155 1.312 1.155 2.031 0 1.283-.976 2.017-2.541 2.017h-9.843c-1.492 0-2.475-.73-2.475-2.017 0-.722.338-1.25 1.233-2.042zm-65.793 0 .728-.764c.866-.836 1.145-1.68 1.145-4.006v-28.71c0-1.948-.208-2.903-1.126-3.67l-.877-.845c-.759-.731-1.036-1.184-1.036-1.915 0-1.046.82-1.898 2.059-2.197l5.748-1.401c.557-.134 1.183-.265 1.67-.265.664 0 1.226.2 1.626.576.403.377.651.94.651 1.696v36.731c0 2.202.275 3.164 1.201 3.997l.742.779c.822.793 1.095 1.313 1.095 2.036 0 .533-.163.963-.455 1.29-.411.462-1.101.727-2.02.727h-9.842c-.919 0-1.608-.265-2.02-.727-.292-.327-.455-.757-.455-1.29 0-.724.271-1.248 1.166-2.042zm90.979-15.019c0-3.312.726-5.692 2.232-7.123 1.488-1.414 3.087-2.129 4.805-2.129 2.364 0 4.493 1.313 6.415 3.898 1.964 2.64 2.934 6.21 2.934 10.701 0 3.315-.729 5.718-2.237 7.191-1.486 1.453-3.084 2.188-4.8 2.188-2.365 0-4.493-1.323-6.414-3.927-1.965-2.662-2.935-6.264-2.935-10.799zm-19.452-17.909c2.997 0 5.117-1.675 5.117-4.563 0-2.821-2.119-4.499-5.117-4.499-3.068 0-5.183 1.68-5.183 4.499 0 2.818 2.117 4.563 5.183 4.563z" fill="#24165b"/><path d="m30.21 70.855h-16.21zm23.344-58.544h7.885c7.727 0 14 6.273 14 14v30.544c0 7.727-6.273 14-14 14h-8.014 7.33c-3.976-.622-5.701-1.814-7.034-2.823l-11.044-9.08a1.552 1.552 0 0 0 -1.955 0l-3.588 2.95-10.106-8.309a1.55 1.55 0 0 0 -1.954 0l-14.039 12.35c-2.825 2.298-4.694 1.874-5.906 1.74a13.975 13.975 0 0 1 -5.129-10.828v-30.544c0-7.727 6.273-14 14-14h7.862l-.04.231-.173 1.747-.024.48-.003.168.017.801.039.47.098.735.124.661.147.609.19.66.497 1.396.163.419.864 1.825.305.561.999 1.714.382.619 1.394 2.053.202.271 1.813 2.361.586.727 2.071 2.421.425.466 1.708 1.836.676.701 1.117 1.109-.224.188-.139.126c-.38.354-.74.729-1.078 1.125a9.769 9.769 0 0 0 -.462.591 7.642 7.642 0 0 0 -.599.978 6 6 0 0 0 -.24.543c-.182.473-.291.97-.324 1.476l-.006.436c.016.615.141 1.223.37 1.794.232.58.57 1.11.998 1.565.311.331.665.619 1.052.857.33.202.682.368 1.048.494.384.132.78.223 1.183.27a5.92 5.92 0 0 0 1.29.012h.005a5.574 5.574 0 0 0 2.039-.606c.274-.144.535-.313.78-.504a4.993 4.993 0 0 0 1.571-2.089 5.213 5.213 0 0 0 .372-2.02l-.02-.362a5.06 5.06 0 0 0 -.339-1.389 5.96 5.96 0 0 0 -.261-.569 7.506 7.506 0 0 0 -.616-.974 10.81 10.81 0 0 0 -.325-.416 13.498 13.498 0 0 0 -1.202-1.26l-.302-.257.512-.505 2.2-2.297.76-.835 1.182-1.331.769-.899 1.098-1.336.742-.934 1.091-1.458.55-.754.781-1.168.651-.995 1.225-2.134.702-1.401.019-.043.537-1.299c.007-.017.014-.034.019-.052l.578-1.803.06-.262.251-1.436.048-.388.016-.238.017-.899-.005-.167-.046-.804-.057-.626-.156-.986zm-23.277 58.544h-.022l.087-.003zm23.085-.001.028.001h-.015zm-39.588-.001.056.001h-.011zm39.524-.001.027.001-.017-.001zm-22.867-.005-.088.005zm-16.836.002.065.002h-.021zm39.64-.001.025.002-.018-.001zm-39.813-.005.068.003-.031-.001zm17.055.001-.024.001.083-.007zm22.694-.001.023.002zm-39.919-.008.067.004-.039-.002zm39.856.002.013.001zm-22.48-.01-.087.01zm22.402.001.014.002zm-39.947-.002.063.003-.045-.002zm17.591-.006-.024.004.079-.013zm22.285-.003.023.004zm-40.044-.003.05.003-.042-.003zm39.979-.008.025.005-.007-.002zm-22.072-.012-.085.016zm-18.099.004.026.002zm40.107-.004.026.005-.009-.002zm-21.961-.01-.026.005.077-.017zm21.899-.003.026.006-.012-.003zm-40.243-.003.057.006-.013-.001zm40.181-.012.026.007-.015-.004zm-21.692-.018-.084.022zm-18.662.011.064.007-.023-.002zm40.292-.008.026.006-.017-.004zm-40.46-.013.066.008-.032-.003zm18.877-.002-.027.007.075-.022zm21.522-.002.025.007-.019-.005zm-40.565-.018.064.009-.039-.006zm40.504-.001.023.007zm-21.32-.024-.083.027zm21.26.005.015.005zm-40.608-.005.058.009-.043-.006zm19.395-.016-.028.01.073-.027zm21.134-.006.019.007zm-40.692-.004.038.007-.033-.006zm19.695-.043-.081.032zm20.933.022.024.01-.005-.002zm-40.827-.013.036.006zm40.766-.011.026.011-.007-.003zm-20.825-.018-.03.013.072-.032zm-20.124-.006.056.011-.014-.002zm40.89-.001.026.011-.01-.004zm-.059-.026.027.012-.012-.006zm-20.574-.028-.08.038zm-20.424.022.062.012-.024-.004zm40.941-.022.027.013-.015-.007zm-41.104-.013.062.013-.031-.006zm20.632-.01-.03.015.071-.036zm20.415-.005.027.013-.018-.008zm-41.207-.022.059.014-.038-.009zm41.15-.008.027.014-.02-.01zm-20.229-.035-.078.044zm20.174.005.025.014-.021-.012zm-41.255 0 .052.013-.04-.01zm21.126-.031-.024.014.033-.019zm20.074-.001.022.013zm-41.358-.007.019.005zm21.34-.027-.023.015.03-.019zm19.941-.013.024.015zm-41.478-.013.038.011-.006-.002zm21.593-.009-.023.014.029-.018zm19.829-.014.026.017-.005-.003zm-19.774-.023-.022.014.026-.017zm-21.821-.002.053.015-.015-.004zm41.542-.011.026.018-.008-.005zm-19.666-.025-.021.014.024-.017zm19.613-.012.026.018-.01-.006zm-41.65 0 .057.017-.023-.006zm22.092-.029-.021.016zm19.539.015-.125-.097c.041.034.082.066.125.097zm-41.788-.034.057.018-.031-.01zm22.301-.021-.018.013zm-22.457-.029.054.018-.036-.012zm22.508-.013 9.592-8.07zm-22.661-.038.041.014-.033-.011zm-.346-.122.037.014-.007-.003zm-.164-.062.05.019-.016-.006zm-.154-.06.052.021-.023-.01zm-.152-.061.052.021-.03-.012zm-.149-.063.046.02-.032-.014zm-.148-.063.03.013zm-.334-.152.037.017-.008-.003zm-.155-.074.047.023-.016-.008zm-.148-.073.05.025-.024-.012zm-.144-.073.048.024-.029-.014zm-.143-.075.042.022-.031-.016zm-.141-.075.021.011zm-.158-.088.015.009zm-.165-.094.041.024-.01-.006zm-.145-.085.048.029-.018-.011zm-.14-.084.05.03-.025-.015zm-.137-.085.049.031-.031-.019zm-.135-.085.043.027-.033-.021zm-.133-.087.02.013zm-.169-.113.036.025-.005-.004zm-.144-.1.05.035-.014-.009-.036-.026zm-.134-.094.054.038-.022-.015zm-.131-.095.056.041-.03-.022zm-.128-.095.056.042-.037-.028zm-.127-.096.055.042-.043-.033zm-.123-.096.045.035-.043-.033-.046-.037zm-.182-.146.064.052-.012-.009zm51.707-17.318a3.362 3.362 0 0 0 -3.316 3.316 3.365 3.365 0 0 0 3.316 3.317 3.367 3.367 0 0 0 3.318-3.317 3.365 3.365 0 0 0 -3.318-3.316z" fill="url(#a)"/><path d="m30.244 70.855h-16.244c-3.366 0-6.456-1.19-8.871-3.172 1.211.133 3.081.558 5.906-1.74l14.039-12.35a1.55 1.55 0 0 1 1.954 0l10.106 8.309 3.588-2.95a1.552 1.552 0 0 1 1.955 0l11.044 9.08c1.333 1.009 3.058 2.201 7.034 2.823h-7.347a3.12 3.12 0 0 1 -1.803-.601l-.129-.1-9.719-8.07-9.592 8.07a3.076 3.076 0 0 1 -1.921.701zm26.638-20.453a3.362 3.362 0 0 0 -3.316 3.316 3.365 3.365 0 0 0 3.316 3.317 3.367 3.367 0 0 0 3.318-3.317 3.365 3.365 0 0 0 -3.318-3.316zm-21.443-13.05-1.117-1.109-.676-.701-1.708-1.836-.425-.466-2.071-2.421-.586-.727-1.813-2.361-.202-.271-1.394-2.053-.382-.619-.999-1.714-.305-.561-.864-1.825-.163-.419-.497-1.396-.19-.66-.147-.609-.124-.661-.098-.735-.039-.47-.017-.801.003-.168.024-.48.173-1.747.053-.307.394-1.745.091-.292.292-.851.094-.222.465-1.021.322-.608.449-.741.448-.659.318-.42.369-.442.404-.445.346-.349.843-.742.663-.539.73-.494.58-.369 1.1-.58c.017-.01.036-.018.054-.026l1.561-.648.144-.054 1.387-.406.586-.132.793-.159.525-.08.805-.1.551-.048 1.09-.059.427-.004.81.016.21.013 1.173.096 1.551.219.178.039 1.534.381.449.134.5.172.61.231.481.204.707.334.446.228.802.471.298.184 1.092.797.314.272.762.694.684.731.222.251.758 1.006.154.241.601 1.016.181.349.34.757.355.885.125.371.366 1.332a.577.577 0 0 1 .016.072l.285 1.801.057.626.046.804.005.167-.017.899-.016.238-.048.388-.251 1.436-.06.262-.578 1.803c-.005.018-.012.035-.019.052l-.537 1.299-.019.043-.702 1.401-1.225 2.134-.651.995-.781 1.168-.55.754-1.091 1.458-.742.934-1.098 1.336-.769.899-1.182 1.331-.76.835-2.2 2.297-.512.505.302.257c.427.394.829.814 1.202 1.26a8.79 8.79 0 0 1 .647.883c.104.165.203.334.294.507.097.185.184.375.261.569.176.444.295.915.339 1.389l.02.362a5.213 5.213 0 0 1 -.372 2.02 4.993 4.993 0 0 1 -1.571 2.089c-.245.191-.506.36-.78.504a5.574 5.574 0 0 1 -2.039.606h-.005a5.92 5.92 0 0 1 -1.29-.012 5.651 5.651 0 0 1 -1.183-.27 5.336 5.336 0 0 1 -1.048-.494 5.132 5.132 0 0 1 -1.052-.857 4.984 4.984 0 0 1 -.998-1.565 5.183 5.183 0 0 1 -.37-1.794l.006-.436a5.016 5.016 0 0 1 .324-1.476 6 6 0 0 1 .24-.543c.175-.341.375-.667.599-.978.146-.203.301-.4.462-.591.338-.396.698-.771 1.078-1.125l.139-.126z" fill="#24165b"/><path d="m41.757 62.084 9.719 8.07a3.113 3.113 0 0 0 1.966.701h-23.232a3.07 3.07 0 0 0 1.955-.701zm-3.989-22.049.088.026c.028.014.052.034.078.051l.074.066c.182.167.358.342.528.522.12.128.236.26.348.396.143.172.275.352.397.539.052.082.102.167.147.254.04.075.076.153.107.233.055.137.096.282.109.43l-.002.278a1.592 1.592 0 0 1 -.751 1.234c-.278.167-.59.27-.914.3l-.343.011-.289-.026a2.17 2.17 0 0 1 -.397-.097 1.887 1.887 0 0 1 -.378-.177l-.225-.165a1.547 1.547 0 0 1 -.515-.882 2.615 2.615 0 0 1 -.027-.174l-.008-.265c.005-.072.015-.143.032-.213.039-.155.095-.305.167-.447a3.536 3.536 0 0 1 .317-.514c.195-.264.407-.516.634-.754a9.57 9.57 0 0 1 .453-.448l.111-.101c.077-.051.078-.051.166-.077zm-.569-36.892.035-.004v30.937l-.077-.142a86.39 86.39 0 0 1 -2.841-5.76 61.603 61.603 0 0 1 -1.929-4.828 37.846 37.846 0 0 1 -1.162-3.976 21.225 21.225 0 0 1 -.509-3.248c-.03-.468-.039-.936-.027-1.405.007-.407.024-.814.049-1.221.042-.641.106-1.279.2-1.913a19.3 19.3 0 0 1 .281-1.488c.089-.391.194-.778.313-1.16.173-.551.38-1.089.62-1.614.089-.19.183-.379.283-.563.597-1.106 1.408-2.125 2.469-2.807a5.141 5.141 0 0 1 2.295-.808zm4.012.078 2.081.593c.964.356 1.891.82 2.744 1.399a10.963 10.963 0 0 1 2.951 2.944c.463.687.845 1.428 1.144 2.202.433 1.147.701 2.347.796 3.569.027.32.043.64.049.961.007.297.005.596-.018.894a10.037 10.037 0 0 1 -.375 1.966 15.49 15.49 0 0 1 -.539 1.548 22.425 22.425 0 0 1 -.856 1.849 35.685 35.685 0 0 1 -2.347 3.861 59.806 59.806 0 0 1 -3.384 4.416 83.929 83.929 0 0 1 -4.059 4.5 86.026 86.026 0 0 0 2.672-5.468 67.811 67.811 0 0 0 1.299-3.13 48.7 48.7 0 0 0 1.21-3.52c.266-.891.502-1.79.696-2.7.165-.78.296-1.568.377-2.361.068-.662.093-1.327.076-1.991a27.487 27.487 0 0 0 -.045-1.217c-.097-1.632-.345-3.258-.821-4.823a13.996 13.996 0 0 0 -.656-1.738c-.609-1.327-1.459-2.568-2.609-3.472l-.386-.282z" fill="#fff"/></svg>