<?xml version="1.0" standalone="no"?>
<!DOCTYPE svg PUBLIC "-//W3C//DTD SVG 20010904//EN"
 "http://www.w3.org/TR/2001/REC-SVG-20010904/DTD/svg10.dtd">
<svg version="1.0" xmlns="http://www.w3.org/2000/svg"
 width="280.000000pt" height="280.000000pt" viewBox="0 0 280.000000 280.000000"
 preserveAspectRatio="xMidYMid meet">

<g transform="translate(0.000000,280.000000) scale(0.100000,-0.100000)"
fill="#000000" stroke="none">
<path d="M0 1440 l0 -1360 493 0 c295 0 506 4 527 10 19 6 53 27 75 47 22 21
76 67 120 103 44 35 89 73 100 83 11 11 34 30 52 44 l32 25 29 -24 c16 -12 76
-61 133 -107 148 -120 139 -108 104 -137 -25 -20 -28 -26 -15 -34 9 -6 233
-10 583 -10 l567 0 0 1360 0 1360 -1400 0 -1400 0 0 -1360z m1480 1114 c22 1
40 -1 40 -5 0 -4 11 -6 25 -3 14 2 25 0 25 -6 0 -5 4 -10 9 -10 5 0 22 -5 38
-12 15 -6 34 -10 42 -9 8 1 10 -2 5 -10 -4 -8 -3 -10 4 -5 6 4 20 -2 32 -14
11 -11 27 -20 35 -20 8 0 29 -15 48 -34 18 -18 47 -40 63 -47 16 -8 29 -19 29
-26 0 -20 15 -27 16 -7 0 11 6 4 16 -19 10 -25 18 -34 23 -27 5 9 10 6 15 -9
3 -11 11 -21 17 -21 5 0 8 -5 6 -12 -5 -13 32 -55 44 -51 4 2 5 -4 2 -12 -4
-8 -1 -15 5 -15 7 0 19 -17 28 -37 8 -21 20 -41 27 -45 6 -4 8 -8 3 -8 -11 0
32 -80 44 -80 6 0 7 -4 4 -10 -3 -5 -1 -10 5 -10 7 0 10 -7 7 -15 -4 -8 -2
-17 4 -21 6 -3 8 -12 5 -20 -3 -7 -1 -16 4 -19 5 -3 6 -13 3 -22 -4 -10 -2
-14 4 -10 7 4 13 -10 17 -38 4 -25 11 -45 15 -45 4 0 8 -6 8 -12 2 -32 11 -76
16 -85 3 -5 7 -28 8 -51 2 -23 5 -42 8 -42 8 0 5 -390 -3 -420 -3 -14 -7 -41
-8 -60 0 -19 -5 -40 -10 -47 -6 -7 -8 -18 -6 -25 3 -7 -1 -23 -8 -36 -7 -13
-11 -34 -9 -48 1 -13 -1 -22 -4 -20 -4 3 -11 -7 -18 -20 -8 -18 -8 -24 0 -24
7 0 5 -5 -5 -10 -10 -6 -15 -21 -14 -40 1 -16 -1 -30 -6 -30 -4 0 -8 -6 -8
-14 0 -8 -7 -16 -15 -20 -8 -3 -14 -9 -13 -13 1 -4 -3 -18 -10 -31 -7 -12 -10
-27 -7 -32 3 -5 -3 -14 -14 -19 -10 -6 -22 -26 -25 -45 -4 -21 -14 -37 -25
-41 -11 -3 -22 -17 -25 -31 -4 -14 -11 -22 -16 -19 -6 3 -10 -1 -10 -11 0 -9
-9 -25 -21 -35 -12 -11 -18 -23 -13 -30 5 -8 2 -10 -8 -6 -10 3 -24 -3 -35
-15 -10 -12 -12 -18 -4 -13 10 5 12 4 7 -3 -4 -7 -14 -12 -22 -12 -8 0 -17 -7
-20 -15 -4 -8 -12 -15 -20 -15 -7 0 -21 -11 -30 -25 -9 -14 -25 -25 -36 -25
-10 0 -17 -4 -14 -8 2 -4 -5 -9 -17 -9 -12 -1 -23 -7 -25 -13 -8 -22 -43 -7
-109 45 -37 31 -77 63 -88 72 -11 9 -35 29 -53 45 -49 42 -78 37 -158 -27 -40
-32 -72 -51 -79 -46 -35 27 -296 239 -323 263 -42 36 -89 38 -122 3 -23 -25
-46 -24 -36 1 3 8 2 14 -3 14 -12 0 -42 47 -47 73 -2 12 -8 23 -14 25 -5 2
-10 12 -10 21 0 10 -3 21 -7 25 -4 3 -8 17 -10 29 -2 12 -8 23 -13 25 -6 2
-10 12 -10 22 0 10 -5 31 -11 47 -7 15 -11 40 -10 56 2 15 -2 27 -7 27 -14 0
-23 43 -12 54 13 13 13 29 0 21 -5 -3 -10 2 -11 12 0 10 -2 27 -5 38 -2 11 -6
54 -8 97 -2 42 -6 81 -10 86 -3 6 0 13 6 16 10 5 10 7 0 12 -9 4 -10 9 -2 19
8 9 8 15 0 20 -6 3 -8 11 -4 16 3 6 8 43 10 82 2 40 6 90 9 112 3 22 6 47 7
55 0 8 5 21 11 28 6 8 6 12 -2 12 -7 0 -9 5 -6 10 4 6 11 8 16 5 5 -4 10 11
11 32 2 52 2 55 17 81 7 13 10 30 7 38 -3 8 -2 14 2 14 5 0 14 17 21 37 8 21
20 43 27 50 7 8 11 20 8 28 -4 8 -1 15 5 15 6 0 10 3 9 8 -4 19 16 62 29 62 8
0 12 4 9 8 -3 5 9 25 25 45 17 21 27 42 23 48 -4 8 -3 9 4 5 7 -4 12 -2 12 5
0 7 16 27 35 46 19 19 35 38 35 43 0 5 8 15 18 22 10 7 28 26 40 42 12 16 22
23 22 17 0 -8 4 -8 14 1 8 7 12 16 9 21 -2 4 5 7 16 7 12 0 21 3 21 8 1 10 48
43 66 46 8 1 21 11 29 22 10 14 14 15 15 5 0 -12 2 -12 13 1 6 9 27 19 45 22
18 2 38 9 45 14 7 5 19 10 27 10 52 2 131 11 139 16 5 3 12 0 14 -6 3 -7 6 -4
7 7 0 18 2 18 10 4 7 -12 22 -16 50 -15z"/>
<path d="M1268 2415 c-3 -3 -32 -12 -64 -21 -90 -23 -161 -63 -229 -129 -74
-73 -120 -154 -140 -251 -36 -177 -9 -290 123 -503 49 -79 192 -254 288 -352
57 -59 62 -68 48 -80 -30 -25 -77 -102 -85 -140 -21 -93 36 -184 135 -215 53
-17 59 -17 111 0 88 27 135 89 135 174 0 64 -19 107 -67 156 l-36 35 94 103
c101 110 143 159 172 198 9 14 36 52 60 85 56 78 97 153 132 240 24 59 29 84
29 165 1 163 -44 279 -145 380 -111 109 -252 160 -442 160 -63 0 -116 -2 -119
-5z m112 -650 c0 -300 -2 -545 -4 -545 -8 0 -118 236 -155 335 -51 138 -71
228 -71 330 0 210 62 353 175 406 22 10 43 19 48 19 4 0 7 -245 7 -545z m265
495 c81 -39 151 -109 189 -190 28 -60 31 -73 31 -175 0 -102 -3 -115 -31 -175
-65 -137 -177 -294 -318 -445 l-56 -60 44 90 c68 139 81 171 127 305 l43 125
0 160 c0 140 -3 167 -22 219 -26 69 -75 150 -106 172 -20 16 -20 16 9 10 17
-4 57 -20 90 -36z m-215 -1290 c57 -57 39 -129 -32 -130 -33 0 -68 32 -68 62
0 26 46 88 66 88 7 0 23 -9 34 -20z"/>
</g>
</svg>
