<svg version="1.1" xmlns="http://www.w3.org/2000/svg" viewBox="0 0 1162.444291111573 980.7399018515343" width="3487.332873334719" height="2942.219705554603" filter="invert(93%) hue-rotate(180deg)"><!-- svg-source:excalidraw --><metadata></metadata><defs><style class="style-fonts">
      </style></defs><g stroke-linecap="round"><g transform="translate(566.3003410106849 729.5096769394154) rotate(0 15.90627840990328 -202.63215539573048)" fill-rule="evenodd"><path d="M-4.24 -405.16 C-4.24 -405.16, -4.24 -405.16, -4.24 -405.16 M-4.24 -405.16 C-4.24 -405.16, -4.24 -405.16, -4.24 -405.16 M-5.81 -397.26 C-5.33 -397.9, -5.02 -397.97, -4.5 -398.76 M-5.81 -397.26 C-5.65 -397.6, -5.3 -397.82, -4.5 -398.76 M-7.38 -389.35 C-6.59 -390.32, -5.43 -392.1, -4.76 -392.37 M-7.38 -389.35 C-7.02 -389.99, -6.41 -390.75, -4.76 -392.37 M-8.96 -381.44 C-7.78 -383.03, -7.16 -384.01, -5.02 -385.97 M-8.96 -381.44 C-7.64 -383.23, -5.7 -384.68, -5.02 -385.97 M-68.92 -306.36 C-68.92 -306.36, -68.92 -306.36, -68.92 -306.36 M-68.92 -306.36 C-68.92 -306.36, -68.92 -306.36, -68.92 -306.36 M-11.19 -372.78 C-10.57 -373.69, -9.12 -375.86, -5.28 -379.57 M-11.19 -372.78 C-9.48 -374.66, -7.9 -376.05, -5.28 -379.57 M-69.84 -299.21 C-69.16 -300.16, -68.31 -300.4, -67.21 -302.23 M-69.84 -299.21 C-69.11 -299.86, -68.48 -300.8, -67.21 -302.23 M-12.76 -364.87 C-10.49 -367.29, -8.86 -369.21, -5.55 -373.17 M-12.76 -364.87 C-11.11 -367.29, -8.61 -368.89, -5.55 -373.17 M-70.1 -292.81 C-68.85 -293.56, -68.29 -295.19, -66.82 -296.59 M-70.1 -292.81 C-69.03 -294.18, -67.74 -295.54, -66.82 -296.59 M-14.34 -356.96 C-11.88 -361.41, -9.28 -363.83, -5.81 -366.78 M-14.34 -356.96 C-11.79 -359.66, -9.51 -361.63, -5.81 -366.78 M-71.02 -285.66 C-70.08 -287.38, -68.73 -288.96, -66.43 -290.94 M-71.02 -285.66 C-70.08 -287.21, -68.78 -288.38, -66.43 -290.94 M-15.91 -349.06 C-14.04 -350.7, -11.6 -353.57, -6.07 -360.38 M-15.91 -349.06 C-14.31 -351.68, -11.07 -355.04, -6.07 -360.38 M-71.94 -278.51 C-69.27 -281.73, -68.02 -283.04, -66.03 -285.3 M-71.94 -278.51 C-69.76 -280.96, -68.3 -283.05, -66.03 -285.3 M-14.86 -344.17 C-14.02 -345.92, -10.73 -347.52, -6.33 -353.98 M-14.86 -344.17 C-13.07 -346.35, -10.77 -349.63, -6.33 -353.98 M-72.2 -272.11 C-70 -275.19, -68.14 -276.99, -65.64 -279.66 M-72.2 -272.11 C-69.4 -274.9, -67.33 -277.12, -65.64 -279.66 M-21.02 -330.98 C-16.7 -336.19, -8.23 -344.85, -6.59 -347.58 M-21.02 -330.98 C-15.97 -337.05, -10.5 -341.43, -6.59 -347.58 M-73.11 -264.96 C-70.18 -268.29, -67.27 -272.51, -65.24 -274.02 M-73.11 -264.96 C-71.29 -266.96, -70.03 -268.97, -65.24 -274.02 M-27.19 -317.79 C-21.94 -324.29, -14.66 -333.54, -6.85 -341.18 M-27.19 -317.79 C-21.65 -323.87, -15.66 -330.88, -6.85 -341.18 M-73.38 -258.56 C-69 -261.65, -66.92 -266.69, -64.85 -268.37 M-73.38 -258.56 C-70.22 -261.83, -67.55 -264.55, -64.85 -268.37 M-32.7 -305.35 C-26.23 -311.54, -22.33 -315.76, -7.11 -334.79 M-32.7 -305.35 C-24.45 -315.95, -14.94 -327.12, -7.11 -334.79 M-72.33 -253.67 C-70.67 -254.69, -69.8 -258.48, -63.8 -263.48 M-72.33 -253.67 C-70.39 -256.32, -67.89 -259.67, -63.8 -263.48 M-38.87 -292.16 C-31.67 -301.57, -22.03 -309.23, -7.38 -328.39 M-38.87 -292.16 C-32.6 -300.6, -23.87 -309.93, -7.38 -328.39 M-73.9 -245.77 C-71.36 -249.93, -66.62 -255.17, -63.4 -257.84 M-73.9 -245.77 C-70.22 -248.54, -68.39 -252.18, -63.4 -257.84 M-39.13 -285.77 C-31 -295.57, -22.05 -308.57, -7.64 -321.99 M-39.13 -285.77 C-31.04 -296.59, -21.06 -306.91, -7.64 -321.99 M-76.13 -237.1 C-73.14 -239.95, -69.14 -245.58, -63.01 -252.2 M-76.13 -237.1 C-72.49 -241.99, -67.45 -247.23, -63.01 -252.2 M-39.39 -279.37 C-31.01 -288.7, -23.62 -300.14, -7.24 -316.35 M-39.39 -279.37 C-27.66 -294.76, -14.96 -309.28, -7.24 -316.35 M-80.98 -225.42 C-75.97 -230.67, -70.65 -238.27, -62.61 -246.56 M-80.98 -225.42 C-74.29 -232.97, -67.41 -240.15, -62.61 -246.56 M-38.34 -274.48 C-27.29 -283.97, -19.52 -295.95, -6.19 -311.46 M-38.34 -274.48 C-30.12 -284.41, -22.05 -293.05, -6.19 -311.46 M-81.24 -219.03 C-75.06 -226.74, -69.5 -231.96, -62.22 -240.91 M-81.24 -219.03 C-74.64 -226.86, -68.03 -234.71, -62.22 -240.91 M-35.98 -271.1 C-25.87 -283.01, -15.7 -295.44, -5.8 -305.82 M-35.98 -271.1 C-23.79 -284.47, -12.68 -297.86, -5.8 -305.82 M-79.54 -214.89 C-73.43 -220.5, -67.65 -229.83, -61.82 -235.27 M-79.54 -214.89 C-76.3 -219.44, -72.27 -223.37, -61.82 -235.27 M-34.27 -266.97 C-25.18 -277.84, -18.13 -284.07, -4.09 -301.68 M-34.27 -266.97 C-22.13 -281.08, -10.29 -293.04, -4.09 -301.68 M-79.14 -209.25 C-76.12 -214.01, -70.17 -219.34, -61.43 -229.63 M-79.14 -209.25 C-73.96 -216.15, -67.69 -223.06, -61.43 -229.63 M-32.56 -262.83 C-25.61 -275.15, -12.96 -285.66, -3.04 -296.8 M-32.56 -262.83 C-26.06 -270.82, -18.9 -279.25, -3.04 -296.8 M-77.44 -205.12 C-74.85 -209.1, -67.72 -214.03, -59.72 -225.49 M-77.44 -205.12 C-72.09 -211.81, -67.32 -218.12, -59.72 -225.49 M-30.2 -259.45 C-19.39 -269.27, -12.64 -283.54, -1.33 -292.66 M-30.2 -259.45 C-18.7 -272.29, -6.98 -284.72, -1.33 -292.66 M-75.73 -200.98 C-70.45 -205.69, -68.63 -211.57, -58.02 -221.36 M-75.73 -200.98 C-68.93 -207.79, -62.5 -216.43, -58.02 -221.36 M-28.49 -255.32 C-19.11 -264.75, -9.96 -275.69, 1.03 -289.28 M-28.49 -255.32 C-19.8 -265.6, -8.85 -278.02, 1.03 -289.28 M-74.02 -196.85 C-67.1 -205.53, -62.3 -210.46, -58.28 -214.96 M-74.02 -196.85 C-68.63 -202.39, -65.97 -206.23, -58.28 -214.96 M-26.13 -251.94 C-19.28 -257.43, -12.06 -266.71, 3.39 -285.9 M-26.13 -251.94 C-15.14 -264.36, -5.41 -275.9, 3.39 -285.9 M-72.32 -192.71 C-66.68 -195.56, -66.19 -203.01, -56.57 -210.83 M-72.32 -192.71 C-68.56 -196.77, -66.41 -201.01, -56.57 -210.83 M-24.42 -247.81 C-18 -256.88, -11 -263.15, 6.41 -283.28 M-24.42 -247.81 C-17.57 -255.14, -11.05 -263.63, 6.41 -283.28 M-70.61 -188.58 C-67.69 -193.31, -60.07 -200.36, -54.86 -206.69 M-70.61 -188.58 C-65.53 -194.56, -60.18 -200.36, -54.86 -206.69 M-22.72 -243.67 C-15.49 -252.26, -8.91 -261.17, 9.43 -280.66 M-22.72 -243.67 C-14.52 -254.06, -4.51 -264.7, 9.43 -280.66 M-68.25 -185.2 C-62.56 -193.09, -56.39 -197.96, -53.16 -202.56 M-68.25 -185.2 C-61.99 -190.96, -56.57 -197.02, -53.16 -202.56 M-21.01 -239.54 C-12.45 -251.2, -2.4 -262.75, 11.79 -277.28 M-21.01 -239.54 C-12.95 -249.21, -6.27 -257.13, 11.79 -277.28 M-68.51 -178.8 C-65.25 -183.43, -60.66 -190.46, -51.45 -198.43 M-68.51 -178.8 C-63.76 -182.87, -59.75 -188.72, -51.45 -198.43 M-19.3 -235.41 C-7.87 -248.92, 4.4 -263.38, 14.81 -274.65 M-19.3 -235.41 C-10.92 -244.52, -1.49 -256.03, 14.81 -274.65 M-68.11 -173.16 C-66.02 -179.35, -60.13 -181.78, -49.74 -194.29 M-68.11 -173.16 C-62.8 -179.04, -57.24 -184.29, -49.74 -194.29 M-18.25 -230.52 C-10.05 -238.09, -1.58 -247.55, 17.83 -272.03 M-18.25 -230.52 C-6.73 -242.48, 3.59 -254.75, 17.83 -272.03 M-67.72 -167.52 C-62.12 -175.65, -55.25 -181.54, -48.04 -190.16 M-67.72 -167.52 C-60.97 -176.62, -53.25 -185.58, -48.04 -190.16 M-16.55 -226.38 C-6.63 -236.49, 0.43 -245.19, 20.85 -269.4 M-16.55 -226.38 C-7.02 -236.96, 2.54 -247.86, 20.85 -269.4 M-67.98 -161.12 C-62.1 -169.09, -55.53 -179.14, -45.67 -186.78 M-67.98 -161.12 C-63.77 -165.9, -58.01 -172.26, -45.67 -186.78 M-14.84 -222.25 C-5.2 -234.23, 7.33 -248.04, 23.87 -266.78 M-14.84 -222.25 C-3.78 -235.43, 8.15 -249.83, 23.87 -266.78 M-67.59 -155.48 C-59.98 -162.73, -58.3 -167.42, -44.62 -181.89 M-67.59 -155.48 C-60.96 -162.62, -56.57 -169.31, -44.62 -181.89 M-13.13 -218.12 C-5.09 -228.08, 7.92 -241.9, 26.89 -264.15 M-13.13 -218.12 C-4.1 -227.97, 5.89 -239.11, 26.89 -264.15 M-66.53 -150.59 C-60.52 -158.99, -51.33 -168.63, -43.57 -177 M-66.53 -150.59 C-58.82 -159.95, -49.41 -170.38, -43.57 -177 M-12.08 -213.23 C-1.61 -222.69, 7.38 -234.58, 29.91 -261.53 M-12.08 -213.23 C0.54 -227.41, 13.43 -242.43, 29.91 -261.53 M77.8 -316.62 C77.8 -316.62, 77.8 -316.62, 77.8 -316.62 M77.8 -316.62 C77.8 -316.62, 77.8 -316.62, 77.8 -316.62 M-68.11 -142.68 C-61.32 -148.25, -56.22 -157.64, -42.52 -172.11 M-68.11 -142.68 C-58.18 -153.7, -48.24 -164.23, -42.52 -172.11 M-10.37 -209.1 C0.6 -224.73, 15.5 -238.43, 32.93 -258.91 M-10.37 -209.1 C5.02 -226.87, 18.9 -242.49, 32.93 -258.91 M78.85 -311.74 C79.04 -312, 79.24 -312.18, 79.51 -312.49 M78.85 -311.74 C79.04 -312.01, 79.27 -312.26, 79.51 -312.49 M-70.34 -134.02 C-61.9 -143.67, -52.76 -154.69, -42.13 -166.47 M-70.34 -134.02 C-62.68 -141.85, -55.63 -151.15, -42.13 -166.47 M-9.32 -204.21 C3.47 -217.98, 17.93 -232.78, 35.29 -255.53 M-9.32 -204.21 C7.83 -222.83, 23.36 -242.05, 35.29 -255.53 M80.56 -307.6 C80.79 -307.77, 80.94 -308.43, 81.87 -309.11 M80.56 -307.6 C80.9 -308.15, 81.34 -308.46, 81.87 -309.11 M-79.78 -117.06 C-67.78 -131.25, -57.4 -142.15, -41.08 -161.58 M-79.78 -117.06 C-71.09 -127.65, -61.15 -137.52, -41.08 -161.58 M-8.27 -199.32 C2.62 -212.15, 17.08 -227.42, 38.31 -252.9 M-8.27 -199.32 C5.53 -216.47, 20.95 -231.69, 38.31 -252.9 M81.61 -302.71 C82.15 -303.51, 82.54 -304.34, 83.57 -304.98 M81.61 -302.71 C82.41 -303.4, 82.97 -304.2, 83.57 -304.98 M-81.36 -109.15 C-70.18 -118.64, -64.19 -131.18, -40.03 -156.7 M-81.36 -109.15 C-72.64 -119.37, -64.42 -129.58, -40.03 -156.7 M-7.88 -193.68 C8.61 -211.9, 25.32 -233.87, 41.33 -250.28 M-7.88 -193.68 C8.4 -213.73, 25.77 -233.19, 41.33 -250.28 M83.31 -298.58 C83.6 -299.5, 84.49 -300.02, 85.28 -300.84 M83.31 -298.58 C84.07 -299.43, 84.75 -300.3, 85.28 -300.84 M-82.93 -101.24 C-75.45 -110.15, -64.23 -120, -40.94 -149.54 M-82.93 -101.24 C-68.03 -117.6, -53.4 -135.71, -40.94 -149.54 M-8.14 -187.28 C5.37 -203.71, 20.57 -221.18, 44.34 -247.65 M-8.14 -187.28 C11.45 -210.44, 30.33 -232.29, 44.34 -247.65 M84.36 -293.69 C85.49 -294.63, 86.43 -295.81, 87.64 -297.47 M84.36 -293.69 C85.3 -294.53, 86.16 -295.9, 87.64 -297.47 M-83.19 -94.84 C-67.63 -112.67, -54.52 -128.23, -39.24 -145.41 M-83.19 -94.84 C-69.75 -109.59, -56.34 -125.64, -39.24 -145.41 M-8.4 -180.88 C10.47 -200.61, 26.57 -224.76, 47.36 -245.03 M-8.4 -180.88 C5.36 -196.86, 19.71 -214.63, 47.36 -245.03 M86.07 -289.56 C86.87 -290.26, 86.96 -291.31, 89.35 -293.33 M86.07 -289.56 C87 -290.76, 87.78 -291.52, 89.35 -293.33 M-83.45 -88.45 C-65.23 -109.65, -45.23 -130.46, -36.87 -142.03 M-83.45 -88.45 C-69.68 -106.19, -52.76 -123.07, -36.87 -142.03 M-8.01 -175.24 C7.41 -191.73, 19.25 -208.91, 50.38 -242.41 M-8.01 -175.24 C5.96 -190.72, 17.02 -204.93, 50.38 -242.41 M87.12 -284.67 C87.9 -285.87, 88.91 -287.1, 91.06 -289.2 M87.12 -284.67 C88.02 -286, 89.23 -287.32, 91.06 -289.2 M-83.06 -82.8 C-72.05 -94.41, -60.39 -109.04, -31.23 -142.42 M-83.06 -82.8 C-63.52 -106.55, -43.02 -129.6, -31.23 -142.42 M-6.96 -170.35 C11.71 -193.48, 30.67 -212.93, 53.4 -239.78 M-6.96 -170.35 C6.12 -186.27, 20.2 -201.38, 53.4 -239.78 M88.83 -280.54 C89.13 -281.37, 90.78 -283.01, 93.42 -285.82 M88.83 -280.54 C89.86 -281.94, 91.64 -283.66, 93.42 -285.82 M-82.01 -77.91 C-28.39 -137.41, 21.39 -195.12, 56.42 -237.16 M-82.01 -77.91 C-50.05 -114.88, -17.94 -151.91, 56.42 -237.16 M90.53 -276.4 C92.73 -278.84, 93.55 -279.8, 95.13 -281.69 M90.53 -276.4 C92.3 -278.51, 93.62 -280.63, 95.13 -281.69 M-80.96 -73.03 C-30.59 -127.74, 15.02 -185.37, 58.78 -233.78 M-80.96 -73.03 C-43.24 -116.08, -5.8 -159.41, 58.78 -233.78 M91.59 -271.51 C93.87 -273.69, 95.96 -275.83, 96.83 -277.55 M91.59 -271.51 C92.63 -273.33, 94.47 -274.43, 96.83 -277.55 M-80.56 -67.38 C-34.16 -116.64, 9.51 -169.72, 61.8 -231.15 M-80.56 -67.38 C-41.36 -111.6, -2.78 -155.12, 61.8 -231.15 M92.64 -266.63 C95.83 -269.98, 98.49 -273.3, 99.85 -274.93 M92.64 -266.63 C93.9 -267.97, 95.62 -270.2, 99.85 -274.93 M-79.51 -62.49 C-42.88 -104.15, -8.19 -146.87, 64.16 -227.78 M-79.51 -62.49 C-36.54 -110.48, 5.72 -159.96, 64.16 -227.78 M93.69 -261.74 C95.25 -263.94, 98.27 -267.8, 101.56 -270.79 M93.69 -261.74 C95.6 -264.2, 96.98 -266.69, 101.56 -270.79 M-78.46 -57.61 C-30.42 -110.38, 15.72 -166.1, 67.18 -225.15 M-78.46 -57.61 C-25.93 -117.16, 26.57 -176.99, 67.18 -225.15 M94.74 -256.85 C96.38 -259.2, 99.27 -261, 103.27 -266.66 M94.74 -256.85 C97.18 -259.64, 100.86 -263.33, 103.27 -266.66 M-78.72 -51.21 C-20.21 -117.8, 34.02 -181.02, 69.55 -221.77 M-78.72 -51.21 C-23.74 -111.46, 30.27 -173.22, 69.55 -221.77 M94.48 -250.45 C97.38 -253.56, 99.9 -257.83, 104.97 -262.53 M94.48 -250.45 C97.93 -254.11, 101.28 -257.56, 104.97 -262.53 M-77.02 -47.07 C-35.64 -92.25, 3.52 -138.92, 71.91 -218.39 M-77.02 -47.07 C-44.29 -83.28, -13.49 -117.54, 71.91 -218.39 M94.21 -244.05 C97.67 -249.92, 102.97 -253.74, 106.68 -258.39 M94.21 -244.05 C97.04 -248.77, 101.49 -252.86, 106.68 -258.39 M-75.97 -42.19 C-27.3 -95.32, 18.84 -148.75, 73.62 -214.26 M-75.97 -42.19 C-34.47 -89.34, 7.95 -135.77, 73.62 -214.26 M93.95 -237.66 C96.81 -244.5, 105.49 -249.77, 108.39 -254.26 M93.95 -237.66 C97.81 -243.85, 103.56 -247.29, 108.39 -254.26 M-72.95 -39.56 C-34.1 -79.63, 1.95 -122.58, 75.32 -210.13 M-72.95 -39.56 C-23.78 -95, 24.74 -150.28, 75.32 -210.13 M93.69 -231.26 C100.86 -236.64, 104.56 -243.18, 110.09 -250.13 M93.69 -231.26 C97.28 -235.44, 101.09 -240.48, 110.09 -250.13 M-70.58 -36.18 C-28.91 -81.54, 9.33 -129.09, 78.34 -207.5 M-70.58 -36.18 C-39.04 -73.81, -5.93 -111.36, 78.34 -207.5 M92.77 -224.11 C100 -229.55, 104.29 -236.29, 111.8 -245.99 M92.77 -224.11 C98.42 -231.11, 103.16 -235.58, 111.8 -245.99 M-68.22 -32.8 C-11.21 -96.65, 44.9 -161.7, 79.39 -202.61 M-68.22 -32.8 C-10.85 -97.82, 46.77 -164.77, 79.39 -202.61 M92.51 -217.71 C97 -225.22, 104.97 -230.86, 112.85 -241.1 M92.51 -217.71 C99.66 -223.72, 104.88 -230.93, 112.85 -241.1 M-65.2 -30.18 C-22.91 -74.8, 16.48 -121.49, 81.1 -198.48 M-65.2 -30.18 C-11.16 -90.98, 41.4 -151.95, 81.1 -198.48 M93.56 -212.82 C97.65 -218.54, 103.18 -225.72, 114.56 -236.97 M93.56 -212.82 C99.18 -217.79, 103.41 -224.94, 114.56 -236.97 M-62.18 -27.56 C-27.25 -65.56, 4.76 -102.73, 82.15 -193.59 M-62.18 -27.56 C-25.7 -68.38, 10.62 -108.12, 82.15 -193.59 M91.99 -204.91 C96.11 -212.54, 102.08 -219.38, 115.61 -232.08 M91.99 -204.91 C100.1 -214.43, 108.15 -223.12, 115.61 -232.08 M-59.17 -24.93 C-2.9 -89.92, 51.6 -155.47, 83.2 -188.7 M-59.17 -24.93 C-24.95 -64.1, 8.86 -104.5, 83.2 -188.7 M91.07 -197.76 C100.11 -208.68, 109.21 -214.67, 117.31 -227.95 M91.07 -197.76 C100.95 -208.29, 108.03 -218.55, 117.31 -227.95 M-56.15 -22.31 C2.31 -90.15, 61.59 -157.69, 117.71 -222.31 M-56.15 -22.31 C0.2 -85.16, 55.46 -148.33, 117.71 -222.31 M-53.13 -19.68 C-18.43 -59.53, 17.18 -98.54, 118.76 -217.42 M-53.13 -19.68 C-10.64 -67.78, 33.01 -116.77, 118.76 -217.42 M-49.45 -17.81 C1.89 -79.8, 57.16 -138.59, 119.81 -212.53 M-49.45 -17.81 C11.3 -87.7, 71 -158.2, 119.81 -212.53 M-46.43 -15.19 C-7.27 -64.31, 34.44 -112.21, 118.89 -205.38 M-46.43 -15.19 C12.67 -84.03, 70.4 -151.3, 118.89 -205.38 M-42.76 -13.32 C10.31 -74, 64.16 -135.04, 117.98 -198.22 M-42.76 -13.32 C-7.5 -50.84, 25.58 -89.6, 117.98 -198.22 M-39.74 -10.7 C-4.46 -50.19, 28.4 -91.65, 115.75 -189.56 M-39.74 -10.7 C0.57 -57.51, 40.96 -105.51, 115.75 -189.56 M-36.07 -8.83 C12.32 -66.47, 61.38 -121.38, 113.52 -180.9 M-36.07 -8.83 C-4.16 -45.72, 26.56 -83.41, 113.52 -180.9 M-31.73 -7.71 C3.02 -45.01, 33.66 -83.68, 110.63 -171.48 M-31.73 -7.71 C-0.74 -43.21, 30.51 -77.66, 110.63 -171.48 M-28.06 -5.84 C2.78 -41.99, 34.04 -75.75, 108.4 -162.82 M-28.06 -5.84 C12.66 -52.06, 52.99 -98.98, 108.4 -162.82 M-23.73 -4.73 C29.17 -65.55, 81.6 -126.49, 106.83 -154.91 M-23.73 -4.73 C2.68 -35.41, 29.13 -65.57, 106.83 -154.91 M-19.4 -3.61 C32.95 -61.85, 80.04 -116.02, 105.91 -147.76 M-19.4 -3.61 C13.92 -39.17, 45.67 -78.03, 105.91 -147.76 M-15.07 -2.5 C11.9 -35.7, 37.79 -66.46, 104.34 -139.85 M-15.07 -2.5 C11.11 -34.43, 40.11 -66.72, 104.34 -139.85 M-10.74 -1.38 C18.29 -36.35, 45.58 -65.41, 102.76 -131.95 M-10.74 -1.38 C25.04 -44.11, 59.43 -84.13, 102.76 -131.95 M-6.4 -0.27 C19.75 -30.99, 42.3 -55.06, 101.19 -124.04 M-6.4 -0.27 C22.68 -31.82, 50.54 -63.52, 101.19 -124.04 M-2.07 0.85 C25.92 -28.48, 51.03 -62.75, 100.93 -117.64 M-2.07 0.85 C33.7 -39.76, 69.36 -80.66, 100.93 -117.64 M2.26 1.96 C28.15 -26.79, 53.17 -57.21, 101.32 -112 M2.26 1.96 C29.78 -30.52, 56.24 -61.42, 101.32 -112 M7.9 1.57 C33.31 -29.56, 62.28 -62.95, 102.37 -107.11 M7.9 1.57 C28.02 -21.37, 47.63 -44.35, 102.37 -107.11 M13.54 1.17 C31.87 -23.46, 52.42 -48.71, 104.08 -102.98 M13.54 1.17 C33 -20.71, 51.39 -42.29, 104.08 -102.98 M18.53 1.53 C46.99 -29.94, 72.11 -59.76, 106.44 -99.6 M18.53 1.53 C42.73 -25.43, 66.14 -51.21, 106.44 -99.6 M24.17 1.14 C54.24 -34.37, 88.38 -72.95, 108.15 -95.46 M24.17 1.14 C40.75 -18.15, 58.62 -39.57, 108.15 -95.46 M29.82 0.74 C50.18 -21.22, 70.58 -44.65, 110.51 -92.09 M29.82 0.74 C50.01 -25.01, 71.47 -47.95, 110.51 -92.09 M35.46 0.35 C65.19 -32.57, 90.13 -67.55, 112.87 -88.71 M35.46 0.35 C65.52 -33.3, 93.78 -67.05, 112.87 -88.71 M41.1 -0.05 C65.59 -30.97, 91.95 -61.33, 114.58 -84.57 M41.1 -0.05 C57.81 -18.58, 74.69 -37.81, 114.58 -84.57 M46.09 0.31 C60.51 -19.93, 78.45 -37.71, 116.29 -80.44 M46.09 0.31 C62.69 -20.87, 81 -41.8, 116.29 -80.44 M52.39 -0.83 C66.66 -17.98, 82.45 -34.82, 117.34 -75.55 M52.39 -0.83 C76.14 -27.72, 99.37 -55.23, 117.34 -75.55 M58.03 -1.23 C68.96 -14.61, 82.58 -30.61, 117.73 -69.91 M58.03 -1.23 C77.35 -22.78, 95.27 -44.05, 117.73 -69.91 M63.68 -1.62 C75.24 -14.66, 89.91 -28.82, 120.1 -66.53 M63.68 -1.62 C85.02 -24.88, 107.01 -50.07, 120.1 -66.53 M71.29 -4.28 C88.33 -20.55, 103.76 -38.83, 118.52 -58.62 M71.29 -4.28 C82.58 -16.9, 94.9 -31.12, 118.52 -58.62 M78.9 -6.94 C86.6 -15.39, 95.88 -24.3, 116.95 -50.71 M78.9 -6.94 C92.94 -22.27, 105.95 -38.12, 116.95 -50.71 M85.85 -8.85 C96.33 -19.23, 106.36 -30.28, 111.44 -38.28 M85.85 -8.85 C92.38 -17.01, 100.64 -24.32, 111.44 -38.28 M92.15 -9.99 C95.14 -15.33, 102.08 -22.08, 103.96 -23.58 M92.15 -9.99 C96.06 -13.96, 99.07 -17.7, 103.96 -23.58" stroke="#fab005" stroke-width="0.5" fill="none"></path><path d="M-1.15 -0.08 C-7.87 -2.42, -28.15 -5.9, -40.78 -12.98 C-53.42 -20.05, -69.46 -30.6, -76.97 -42.55 C-84.48 -54.49, -85.2 -71.89, -85.83 -84.64 C-86.46 -97.39, -83.35 -109.3, -80.73 -119.04 C-78.12 -128.79, -72 -132.21, -70.16 -143.13 C-68.32 -154.04, -67.63 -172.19, -69.7 -184.53 C-71.78 -196.87, -81.7 -205.32, -82.6 -217.17 C-83.5 -229.02, -77.19 -240.81, -75.11 -255.63 C-73.03 -270.45, -72.24 -310.49, -70.13 -306.09 C-68.01 -301.7, -66.01 -248.83, -62.42 -229.29 C-58.83 -209.75, -52.94 -203.28, -48.6 -188.84 C-44.26 -174.4, -42.65 -146.55, -36.38 -142.66 C-30.11 -138.77, -15.65 -156.96, -10.96 -165.51 C-6.27 -174.06, -7.37 -183.59, -8.26 -193.94 C-9.15 -204.3, -13.24 -217.81, -16.29 -227.65 C-19.34 -237.5, -22.4 -244.5, -26.56 -253 C-30.73 -261.51, -39.88 -269.46, -41.28 -278.67 C-42.67 -287.88, -39.14 -296.92, -34.94 -308.24 C-30.73 -319.57, -21.28 -330.56, -16.05 -346.62 C-10.82 -362.68, -5.28 -411.02, -3.57 -404.62 C-1.86 -398.23, -9.89 -330.64, -5.79 -308.24 C-1.69 -285.84, 8.47 -284.43, 21.01 -270.23 C33.55 -256.02, 58.94 -237.58, 69.45 -223.01 C79.96 -208.44, 80.08 -177.05, 84.05 -182.82 C88.02 -188.6, 94.22 -235.41, 93.26 -257.66 C92.3 -279.91, 74.41 -322.17, 78.3 -316.32 C82.18 -310.48, 111.51 -247.99, 116.57 -222.6 C121.64 -197.2, 111.25 -182.51, 108.67 -163.96 C106.1 -145.4, 99.63 -127.17, 101.11 -111.26 C102.59 -95.36, 119.1 -85.26, 117.57 -68.54 C116.04 -51.83, 111.32 -22.42, 91.93 -10.97 C72.53 0.48, 16.51 -1.55, 1.18 0.15 M0.45 -1.17 C-6.32 -2.83, -28.86 -5.07, -41.36 -11.72 C-53.86 -18.36, -67.17 -28.57, -74.54 -41.06 C-81.92 -53.54, -84.42 -73.68, -85.62 -86.62 C-86.82 -99.56, -84.47 -109.66, -81.75 -118.7 C-79.02 -127.74, -71.34 -129.73, -69.27 -140.86 C-67.2 -151.98, -67.48 -172.68, -69.35 -185.46 C-71.22 -198.23, -79.83 -205.61, -80.49 -217.52 C-81.16 -229.42, -75.11 -242.13, -73.34 -256.88 C-71.57 -271.64, -71.73 -310.71, -69.87 -306.04 C-68.01 -301.37, -65.49 -248.39, -62.2 -228.87 C-58.9 -209.35, -54.54 -203.14, -50.11 -188.92 C-45.69 -174.71, -42.06 -147.38, -35.65 -143.59 C-29.23 -139.8, -16.23 -157.67, -11.61 -166.18 C-6.99 -174.69, -7.33 -184.55, -7.91 -194.66 C-8.49 -204.77, -11.88 -217.24, -15.1 -226.83 C-18.32 -236.42, -23.17 -243.68, -27.24 -252.2 C-31.31 -260.71, -38.58 -268.52, -39.52 -277.92 C-40.45 -287.32, -36.89 -297.4, -32.85 -308.61 C-28.81 -319.82, -20.03 -329.03, -15.28 -345.18 C-10.53 -361.32, -5.47 -411.91, -4.35 -405.47 C-3.23 -399.04, -12.82 -328.9, -8.57 -306.55 C-4.32 -284.2, 8.44 -285.11, 21.13 -271.36 C33.82 -257.61, 56.85 -238.36, 67.58 -224.07 C78.31 -209.77, 81.62 -180.06, 85.54 -185.6 C89.45 -191.14, 92.57 -235.46, 91.07 -257.29 C89.57 -279.11, 72.14 -322.06, 76.54 -316.54 C80.93 -311.02, 112 -249.79, 117.45 -224.17 C122.89 -198.54, 112.23 -181.45, 109.19 -162.78 C106.15 -144.12, 97.86 -127.66, 99.19 -112.21 C100.53 -96.75, 118.37 -86.66, 117.19 -70.07 C116.02 -53.48, 111.73 -24.31, 92.15 -12.68 C72.57 -1.04, 14.81 -2.38, -0.27 -0.28" stroke="#000000" stroke-width="1" fill="none"></path></g></g><mask></mask><g stroke-linecap="round"><g transform="translate(575.9824235210599 729.5096769394154) rotate(0 4.84104125518752 -136.93230978960628)" fill-rule="evenodd"><path d="M-21.99 -276.17 C-21.99 -276.17, -21.99 -276.17, -21.99 -276.17 M-21.99 -276.17 C-21.99 -276.17, -21.99 -276.17, -21.99 -276.17 M-18.97 -273.55 C-18.97 -273.55, -18.97 -273.55, -18.97 -273.55 M-18.97 -273.55 C-18.97 -273.55, -18.97 -273.55, -18.97 -273.55 M-16.61 -270.17 C-16.61 -270.17, -16.61 -270.17, -16.61 -270.17 M-16.61 -270.17 C-16.61 -270.17, -16.61 -270.17, -16.61 -270.17 M-14.25 -266.79 C-14.14 -266.9, -13.84 -267.28, -13.59 -267.54 M-14.25 -266.79 C-14.09 -267, -13.88 -267.15, -13.59 -267.54 M-11.89 -263.41 C-11.85 -263.49, -11.62 -263.81, -11.23 -264.16 M-11.89 -263.41 C-11.67 -263.58, -11.52 -263.82, -11.23 -264.16 M-8.87 -260.79 C-8.73 -261.01, -8.45 -261.39, -8.21 -261.54 M-8.87 -260.79 C-8.71 -260.98, -8.54 -261.18, -8.21 -261.54 M-6.5 -257.41 C-6.28 -257.51, -6.22 -257.77, -5.85 -258.16 M-6.5 -257.41 C-6.29 -257.61, -6.13 -257.83, -5.85 -258.16 M-4.14 -254.03 C-4.14 -254.03, -4.14 -254.03, -4.14 -254.03 M-4.14 -254.03 C-4.14 -254.03, -4.14 -254.03, -4.14 -254.03 M-1.78 -250.65 C-1.78 -250.65, -1.78 -250.65, -1.78 -250.65 M-1.78 -250.65 C-1.78 -250.65, -1.78 -250.65, -1.78 -250.65 M-0.07 -246.51 C0.18 -246.89, 0.43 -247.26, 1.24 -248.02 M-0.07 -246.51 C0.39 -247, 0.82 -247.57, 1.24 -248.02 M1.64 -242.38 C2.11 -242.77, 3.05 -243.82, 3.6 -244.65 M1.64 -242.38 C2.11 -243.1, 2.63 -243.52, 3.6 -244.65 M2.69 -237.49 C4.03 -239.23, 5.17 -240.26, 5.97 -241.27 M2.69 -237.49 C3.65 -238.69, 4.46 -239.61, 5.97 -241.27 M4.39 -233.36 C5.1 -234.81, 5.85 -235.16, 8.33 -237.89 M4.39 -233.36 C5.43 -234.52, 6.39 -236.13, 8.33 -237.89 M5.44 -228.47 C6.45 -229.3, 8.06 -232.21, 11.35 -235.26 M5.44 -228.47 C6.39 -230.16, 8.49 -231.59, 11.35 -235.26 M7.15 -224.34 C8.92 -226.23, 11.71 -230.68, 13.71 -231.88 M7.15 -224.34 C9.65 -226.18, 11.01 -228.79, 13.71 -231.88 M8.2 -219.45 C10.4 -220.64, 11.75 -222.91, 16.07 -228.51 M8.2 -219.45 C9.56 -221.82, 11.57 -224.24, 16.07 -228.51 M9.91 -215.32 C11.85 -218.83, 15.46 -222.21, 18.44 -225.13 M9.91 -215.32 C12.92 -218.18, 15.64 -221.78, 18.44 -225.13 M10.96 -210.43 C14.11 -213.86, 16.97 -214.37, 21.45 -222.5 M10.96 -210.43 C14.48 -214.06, 16.46 -217.64, 21.45 -222.5 M12.66 -206.29 C17.3 -211.59, 19.57 -215.43, 23.82 -219.12 M12.66 -206.29 C15.82 -209.9, 18.95 -212.72, 23.82 -219.12 M13.72 -201.4 C15.95 -205.04, 21.05 -209.52, 26.18 -215.74 M13.72 -201.4 C18.04 -206.56, 21.17 -211.14, 26.18 -215.74 M14.77 -196.52 C19.34 -204.07, 24.24 -208.48, 28.54 -212.37 M14.77 -196.52 C19.59 -202.41, 23.64 -205.51, 28.54 -212.37 M15.82 -191.63 C21.19 -198.8, 26.39 -202.07, 31.56 -209.74 M15.82 -191.63 C19.08 -196.14, 23.49 -200.91, 31.56 -209.74 M16.87 -186.74 C23.03 -190.7, 25.66 -199.68, 33.92 -206.36 M16.87 -186.74 C21.02 -192.75, 26.28 -198.29, 33.92 -206.36 M17.92 -181.85 C24.68 -190.25, 30.62 -199.15, 36.29 -202.98 M17.92 -181.85 C23.56 -187.97, 29.42 -195.71, 36.29 -202.98 M-48.61 -99.23 C-46.04 -103.25, -38.92 -110.46, -33.52 -116.59 M-48.61 -99.23 C-43.42 -105.59, -38.38 -111.08, -33.52 -116.59 M18.97 -176.96 C24.4 -184.54, 29.1 -188.58, 38.65 -199.6 M18.97 -176.96 C26.2 -185.69, 33.76 -194.18, 38.65 -199.6 M-52.15 -89.06 C-39.53 -101.81, -26.46 -118.88, -15.41 -131.32 M-52.15 -89.06 C-44.63 -99.55, -34.98 -108.54, -15.41 -131.32 M19.36 -171.32 C27.04 -180.19, 34.3 -189.12, 41.01 -196.23 M19.36 -171.32 C26.11 -179.05, 34.1 -187.54, 41.01 -196.23 M-53.06 -81.9 C-34.68 -99.42, -19.35 -120.38, -5.83 -136.24 M-53.06 -81.9 C-41.87 -94.62, -30.67 -107.17, -5.83 -136.24 M19.1 -164.92 C27.73 -173.9, 32.53 -181.97, 43.38 -192.85 M19.1 -164.92 C25.39 -172.08, 32.52 -179.08, 43.38 -192.85 M-53.98 -74.75 C-33.82 -100.5, -10.42 -123.68, 3.75 -141.17 M-53.98 -74.75 C-40.81 -90.23, -27.74 -104.99, 3.75 -141.17 M19.5 -159.28 C27.41 -165.66, 34.92 -174.94, 45.74 -189.47 M19.5 -159.28 C28.25 -168.14, 35.87 -178.26, 45.74 -189.47 M-54.24 -68.35 C-17.78 -106.14, 12.47 -145.38, 47.45 -185.33 M-54.24 -68.35 C-23.01 -104.15, 7.93 -138.95, 47.45 -185.33 M-53.85 -62.71 C-14.99 -108.44, 28.23 -155.97, 49.81 -181.95 M-53.85 -62.71 C-24.84 -96.57, 3.97 -129.56, 49.81 -181.95 M-52.8 -57.82 C-27.91 -86.57, -6.04 -110.9, 51.51 -177.82 M-52.8 -57.82 C-31.74 -83.89, -7.42 -111.15, 51.51 -177.82 M-51.75 -52.93 C-23.29 -85.12, 6.86 -120.04, 53.22 -173.69 M-51.75 -52.93 C-24.47 -82.82, 3.52 -116.48, 53.22 -173.69 M-50.7 -48.05 C-30.15 -71.56, -4.55 -100.18, 55.58 -170.31 M-50.7 -48.05 C-14.49 -89.37, 22.08 -132.92, 55.58 -170.31 M-49.65 -43.16 C-14.04 -83.81, 22.78 -126.96, 56.63 -165.42 M-49.65 -43.16 C-20.07 -74.61, 8.85 -107.37, 56.63 -165.42 M-47.94 -39.02 C-4.48 -86.76, 35.04 -131.84, 58.34 -161.29 M-47.94 -39.02 C-15.5 -78.56, 18.93 -116.44, 58.34 -161.29 M-46.23 -34.89 C-9.15 -75.72, 22.39 -113.95, 59.39 -156.4 M-46.23 -34.89 C-10.34 -75.9, 26.25 -117.02, 59.39 -156.4 M-43.87 -31.51 C-3.24 -76.76, 35.03 -125.29, 59.79 -150.75 M-43.87 -31.51 C-5.91 -74.48, 31.91 -117.35, 59.79 -150.75 M-41.51 -28.13 C-18.05 -55.65, 7.32 -80.52, 60.84 -145.87 M-41.51 -28.13 C-13.76 -61.14, 14.13 -92.45, 60.84 -145.87 M-38.49 -25.51 C-2.54 -66.78, 31.87 -106.47, 60.58 -139.47 M-38.49 -25.51 C-19.39 -48.54, 2.06 -70.51, 60.58 -139.47 M-35.47 -22.88 C-0.49 -63.84, 36.25 -104.08, 60.97 -133.83 M-35.47 -22.88 C-8.68 -53.14, 18.75 -83.68, 60.97 -133.83 M-32.45 -20.26 C-9.38 -48.33, 18.54 -75.83, 60.05 -126.67 M-32.45 -20.26 C-1.65 -55.54, 28.9 -92.65, 60.05 -126.67 M-28.78 -18.39 C-1.19 -48.87, 25.56 -81.31, 54.54 -114.24 M-28.78 -18.39 C-3.56 -49.23, 23.89 -78.39, 54.54 -114.24 M-25.76 -15.77 C-2.88 -39.91, 20.86 -69.3, 49.03 -101.8 M-25.76 -15.77 C1.16 -45.56, 26.43 -76.42, 49.03 -101.8 M-22.74 -13.14 C-7.73 -31.32, 7.29 -44.67, 47.46 -93.9 M-22.74 -13.14 C2.82 -43.29, 29.29 -74.15, 47.46 -93.9 M-19.06 -11.27 C0.17 -34.64, 22.62 -56.7, 48.51 -89.01 M-19.06 -11.27 C-4.37 -28.29, 10.76 -45.59, 48.51 -89.01 M-16.04 -8.65 C6.48 -32.97, 30.17 -59.75, 50.22 -84.87 M-16.04 -8.65 C9.55 -38.49, 34.36 -67.35, 50.22 -84.87 M-12.37 -6.78 C10.56 -34.84, 33.2 -61.58, 52.58 -81.49 M-12.37 -6.78 C12.44 -35.29, 39.31 -65.94, 52.58 -81.49 M-8.69 -4.91 C5.99 -24.02, 21.69 -39.72, 54.29 -77.36 M-8.69 -4.91 C9.54 -26.89, 29.08 -49.59, 54.29 -77.36 M-5.02 -3.04 C16.91 -28.54, 37.94 -53.13, 56.65 -73.98 M-5.02 -3.04 C14.22 -26.24, 34.94 -48.67, 56.65 -73.98 M-1.35 -1.17 C11.95 -13.25, 22.74 -30.09, 58.36 -69.85 M-1.35 -1.17 C13.08 -18.63, 29.15 -34.52, 58.36 -69.85 M2.99 -0.05 C19.92 -22.21, 39.43 -41.38, 60.72 -66.47 M2.99 -0.05 C22.6 -22.2, 41.53 -45.46, 60.72 -66.47 M9.28 -1.2 C24.5 -18.41, 42.04 -39.23, 61.77 -61.58 M9.28 -1.2 C26.61 -22.18, 45.54 -43.2, 61.77 -61.58 M15.58 -2.35 C32.19 -20.96, 49.45 -41.5, 62.16 -55.94 M15.58 -2.35 C31.7 -21.66, 49.51 -39.07, 62.16 -55.94 M21.88 -3.5 C32.25 -17.21, 43.5 -27.33, 62.56 -50.29 M21.88 -3.5 C32.32 -16.54, 44.19 -28.78, 62.56 -50.29 M28.18 -4.65 C39.08 -17.78, 51.54 -33.46, 62.3 -43.9 M28.18 -4.65 C40.96 -18.97, 53.8 -34.72, 62.3 -43.9 M33.83 -5.05 C43.38 -14.71, 49.61 -25.54, 62.04 -37.5 M33.83 -5.05 C41.82 -14.01, 50.14 -24.54, 62.04 -37.5 M40.12 -6.2 C48.8 -14.7, 58.18 -25.75, 61.77 -31.1 M40.12 -6.2 C49.31 -16.36, 56.47 -24.93, 61.77 -31.1 M48.39 -9.61 C52.88 -12.49, 55.18 -15.89, 58.89 -21.68 M48.39 -9.61 C51.37 -13.67, 55.49 -17.42, 58.89 -21.68 M-41.15 -27.35 C-41.15 -27.35, -41.15 -27.35, -41.15 -27.35 M-41.15 -27.35 C-41.15 -27.35, -41.15 -27.35, -41.15 -27.35 M-20.42 -14.62 C-27.77 -20.55, -32.86 -27.99, -43.81 -34.96 M-20.42 -14.62 C-27.68 -19.64, -33.09 -26.61, -43.81 -34.96 M1.07 -1.24 C-18.8 -17.28, -37.52 -34.02, -51 -46.5 M1.07 -1.24 C-9.29 -10.93, -21.49 -20.76, -51 -46.5 M5.96 -2.29 C-13.62 -18.34, -31.85 -35.15, -52.15 -52.8 M5.96 -2.29 C-13.65 -18.29, -32.29 -34.76, -52.15 -52.8 M11.61 -2.68 C-11.02 -19.8, -31.41 -39.54, -53.3 -59.1 M11.61 -2.68 C-7.08 -20.33, -27.41 -35.97, -53.3 -59.1 M16.49 -3.73 C1.42 -14.63, -12.21 -29.17, -52.18 -63.43 M16.49 -3.73 C-1.33 -18.83, -18.87 -35.51, -52.18 -63.43 M21.38 -4.78 C-5.16 -29.21, -30.34 -50.44, -52.58 -69.08 M21.38 -4.78 C-3.57 -26.91, -28.66 -47.86, -52.58 -69.08 M27.03 -5.18 C-3.37 -33.09, -34.36 -58.95, -52.97 -74.72 M27.03 -5.18 C2.18 -25.83, -21.36 -46.95, -52.97 -74.72 M31.91 -6.23 C14.07 -21.43, -0.28 -35.04, -52.61 -79.71 M31.91 -6.23 C4.25 -31.04, -21.36 -53.39, -52.61 -79.71 M36.8 -7.28 C16.26 -23.5, -3.02 -42.16, -52.25 -84.69 M36.8 -7.28 C17.32 -24.33, -3.03 -40.03, -52.25 -84.69 M42.45 -7.67 C25.1 -24.72, 2.85 -40.91, -51.14 -89.02 M42.45 -7.67 C20.71 -26.4, -2.05 -46.09, -51.14 -89.02 M45.82 -10.04 C17.18 -34.57, -12.91 -59.87, -50.78 -94.01 M45.82 -10.04 C21.73 -30.38, -1.09 -50.23, -50.78 -94.01 M49.96 -11.74 C15.46 -43.17, -19.89 -71.78, -48.91 -97.69 M49.96 -11.74 C17.27 -41.28, -16.87 -69.99, -48.91 -97.69 M54.09 -13.45 C27.84 -35.37, 1.77 -60.69, -47.04 -101.36 M54.09 -13.45 C24.19 -40.66, -5.87 -65.64, -47.04 -101.36 M55.96 -17.12 C24.78 -45.64, -5.74 -69.59, -45.17 -105.04 M55.96 -17.12 C26.12 -42.48, -3.72 -70.56, -45.17 -105.04 M57.83 -20.8 C26.25 -49.4, -6.18 -77.25, -42.55 -108.06 M57.83 -20.8 C19.27 -54.79, -20.92 -89.18, -42.55 -108.06 M60.46 -23.82 C38.59 -44.81, 12.97 -64.31, -39.92 -111.07 M60.46 -23.82 C33.35 -48, 7.62 -71.21, -39.92 -111.07 M61.57 -28.15 C39.38 -47.28, 20.65 -66.02, -37.3 -114.09 M61.57 -28.15 C36.35 -49.09, 9.62 -71.94, -37.3 -114.09 M62.68 -32.48 C27.82 -64.51, -12.31 -96.06, -34.67 -117.11 M62.68 -32.48 C25.56 -63.85, -9.24 -95.55, -34.67 -117.11 M63.8 -36.81 C42.01 -54.4, 25.45 -74.79, -31.29 -119.47 M63.8 -36.81 C40.1 -58.14, 14.87 -80.17, -31.29 -119.47 M64.16 -41.8 C37.69 -62.93, 12.8 -85.28, -28.67 -122.49 M64.16 -41.8 C41.76 -62.33, 20.23 -80.5, -28.67 -122.49 M64.52 -46.79 C36.31 -72.06, 5.97 -98.31, -25.29 -124.86 M64.52 -46.79 C38.29 -70.03, 11.62 -94.08, -25.29 -124.86 M64.13 -52.43 C37.43 -77.22, 8.47 -100.92, -22.67 -127.87 M64.13 -52.43 C39.85 -73.56, 13.9 -95.37, -22.67 -127.87 M62.98 -58.73 C35.91 -83, 9.37 -103.27, -19.29 -130.24 M62.98 -58.73 C35.91 -81.61, 10.38 -104.61, -19.29 -130.24 M61.07 -65.68 C41.45 -81.96, 22.09 -97.63, -15.15 -131.94 M61.07 -65.68 C43.95 -79.83, 29.68 -93.65, -15.15 -131.94 M61.43 -70.67 C42.76 -84, 25.66 -102.21, -11.77 -134.31 M61.43 -70.67 C45.43 -85.42, 30.15 -98.71, -11.77 -134.31 M49.72 -86.15 C36.2 -95.53, 24.82 -106.96, -7.64 -136.01 M49.72 -86.15 C32.05 -102.2, 14.91 -116.67, -7.64 -136.01 M47.81 -93.11 C30.15 -110.39, 8.8 -126.7, -4.26 -138.38 M47.81 -93.11 C30.72 -108.55, 14.95 -121.48, -4.26 -138.38 M48.93 -97.44 C33.76 -112.89, 19.02 -126.32, -0.13 -140.08 M48.93 -97.44 C30.42 -113.69, 13.13 -129.13, -0.13 -140.08 M50.04 -101.77 C33.51 -118.49, 13.54 -131.8, 3.25 -142.45 M50.04 -101.77 C37.73 -112.93, 24.86 -124.54, 3.25 -142.45 M51.16 -106.1 C37.78 -120.22, 25.03 -131.04, 7.38 -144.15 M51.16 -106.1 C35.46 -119.85, 19.75 -132.1, 7.38 -144.15 M53.03 -109.78 C43.85 -117.34, 33.1 -127.84, 11.52 -145.86 M53.03 -109.78 C43.94 -117.06, 36.44 -123.78, 11.52 -145.86 M54.9 -113.45 C43.08 -123.65, 32.96 -133.05, 14.9 -148.22 M54.9 -113.45 C42.15 -125.47, 29.01 -136.15, 14.9 -148.22 M56.77 -117.13 C41.82 -128.45, 29.09 -137.68, 17.52 -151.24 M56.77 -117.13 C42.86 -127.73, 31.37 -140.39, 17.52 -151.24 M58.64 -120.8 C46.09 -131.46, 36.98 -137.99, 18.64 -155.57 M58.64 -120.8 C45.31 -132.71, 31.85 -143.33, 18.64 -155.57 M60.5 -124.48 C52.67 -133.88, 42.25 -140.87, 20.51 -159.25 M60.5 -124.48 C46.31 -136.57, 33.49 -148.56, 20.51 -159.25 M61.62 -128.81 C44.12 -143.32, 31.05 -158.45, 20.11 -164.89 M61.62 -128.81 C49 -139.48, 34.97 -150.77, 20.11 -164.89 M61.98 -133.79 C52.53 -143.88, 39.73 -152.04, 20.47 -169.88 M61.98 -133.79 C49.81 -143.7, 39.67 -152.93, 20.47 -169.88 M61.59 -139.44 C48.83 -150.23, 37.67 -160.16, 20.08 -175.52 M61.59 -139.44 C45.59 -152.96, 28.21 -168, 20.08 -175.52 M61.19 -145.08 C45.39 -158.12, 28.17 -174.7, 21.19 -179.85 M61.19 -145.08 C45.63 -158.31, 32.81 -169.73, 21.19 -179.85 M60.8 -150.72 C46.69 -164.46, 33.65 -176.47, 20.04 -186.15 M60.8 -150.72 C45.72 -164.55, 29.89 -177.09, 20.04 -186.15 M59.65 -157.02 C48.59 -167.66, 36.84 -174.91, 18.14 -193.11 M59.65 -157.02 C50.59 -165.16, 42.75 -172.48, 18.14 -193.11 M57.74 -163.98 C46.62 -176.09, 31.63 -187.18, 13.97 -202.03 M57.74 -163.98 C44.5 -175.92, 32.12 -186.87, 13.97 -202.03 M55.84 -170.93 C40.85 -184.54, 25.35 -199.72, 11.31 -209.64 M55.84 -170.93 C42.95 -180.71, 31.46 -190.58, 11.31 -209.64 M50.92 -180.51 C39.17 -191.61, 26.95 -199.06, 9.41 -216.6 M50.92 -180.51 C41.22 -188.34, 30.47 -197.62, 9.41 -216.6 M48.26 -188.12 C34.23 -199.59, 25.42 -207.44, 6.75 -224.21 M48.26 -188.12 C34.74 -199.69, 23.63 -209.43, 6.75 -224.21 M39.56 -200.98 C27.73 -210.74, 18.56 -219.81, 4.84 -231.16 M39.56 -200.98 C29.62 -210.02, 20.46 -217.62, 4.84 -231.16 M33.88 -211.22 C25.91 -218.5, 17.91 -225.69, 2.94 -238.12 M33.88 -211.22 C23.13 -219.48, 14.82 -228.96, 2.94 -238.12 M20.66 -228.01 C11.72 -235.38, 5.43 -242.02, 0.28 -245.73 M20.66 -228.01 C13.7 -234.37, 4.57 -241.74, 0.28 -245.73 M6.68 -245.47 C5.57 -245.99, 4.59 -247.32, 2.15 -249.4 M6.68 -245.47 C5.37 -246.5, 4.06 -247.78, 2.15 -249.4 M-5.79 -261.61 C-5.98 -261.7, -6.13 -261.85, -6.55 -262.26 M-5.79 -261.61 C-6.03 -261.84, -6.23 -262.06, -6.55 -262.26" stroke="#fa5252" stroke-width="0.5" fill="none"></path><path d="M0.71 -0.53 C-6.86 -5.99, -37.65 -17.92, -46.54 -32.87 C-55.43 -47.81, -57.08 -74.2, -52.63 -90.18 C-48.19 -106.15, -31.71 -117.36, -19.87 -128.73 C-8.04 -140.09, 15.14 -138.9, 18.36 -158.34 C21.59 -177.79, 6.14 -226.14, -0.55 -245.39 C-7.23 -264.65, -29.6 -283.7, -21.74 -273.88 C-13.89 -264.06, 33 -210.15, 46.61 -186.47 C60.21 -162.8, 59.85 -146.81, 59.89 -131.82 C59.93 -116.82, 46.49 -108.9, 46.85 -96.51 C47.21 -84.11, 60.94 -71.42, 62.05 -57.44 C63.16 -43.46, 63.85 -22.07, 53.52 -12.65 C43.2 -3.23, 9.02 -2.97, 0.1 -0.91 M-0.38 1.81 C-7.47 -4.02, -35.45 -19.19, -44.3 -34.82 C-53.14 -50.44, -57.63 -76.46, -53.44 -91.94 C-49.25 -107.41, -31.41 -116.61, -19.17 -127.67 C-6.93 -138.73, 16.74 -138.58, 20.03 -158.3 C23.32 -178.02, 7.52 -226.52, 0.58 -246.01 C-6.36 -265.5, -29.09 -285.12, -21.63 -275.23 C-14.16 -265.34, 31.53 -210.44, 45.36 -186.68 C59.2 -162.93, 61.01 -148.16, 61.37 -132.69 C61.73 -117.22, 47.37 -106.02, 47.52 -93.86 C47.67 -81.71, 61.42 -73.22, 62.27 -59.78 C63.12 -46.33, 62.93 -23.38, 52.62 -13.17 C42.3 -2.97, 9.27 -0.65, 0.39 1.44" stroke="#000000" stroke-width="1" fill="none"></path></g></g><mask></mask><g stroke-linecap="round" transform="translate(484.52955572747123 710.4803231619367) rotate(0 22.13047430943152 20.747319665091936)"><path d="M7.49 5.19 C7.49 5.19, 7.49 5.19, 7.49 5.19 M7.49 5.19 C7.49 5.19, 7.49 5.19, 7.49 5.19 M1.33 18.38 C6.58 13.94, 9.23 8.02, 15.76 1.77 M1.33 18.38 C6.93 12.14, 13.07 4.69, 15.76 1.77 M2.38 23.27 C9.33 16.14, 13.81 8.67, 22.71 -0.13 M2.38 23.27 C8.76 16.4, 14.35 9.31, 22.71 -0.13 M2.77 28.91 C9.96 20.83, 15.46 13.45, 26.39 1.74 M2.77 28.91 C9.13 21.58, 15.31 14.5, 26.39 1.74 M4.48 33.04 C12.79 24.09, 19.54 14.92, 30.72 2.85 M4.48 33.04 C14.57 21.49, 24.43 9.62, 30.72 2.85 M8.15 34.91 C15 27.16, 23.7 17.51, 34.39 4.72 M8.15 34.91 C14.75 28.04, 20.04 21.15, 34.39 4.72 M11.17 37.54 C15.42 32.17, 22.21 24.93, 37.41 7.35 M11.17 37.54 C21.56 25.22, 32.07 13.32, 37.41 7.35 M14.19 40.16 C22.77 29.51, 31.44 21.06, 39.78 10.73 M14.19 40.16 C22.06 31.23, 29.51 22.68, 39.78 10.73 M19.18 40.52 C26.54 33.97, 31.76 25.36, 42.14 14.11 M19.18 40.52 C27.37 30.49, 36.6 21.04, 42.14 14.11 M24.82 40.13 C30.24 33.31, 37.04 25.49, 45.16 16.73 M24.82 40.13 C31.38 32.19, 38.48 23.8, 45.16 16.73 M30.46 39.73 C32.79 35.73, 36.94 32.47, 43.58 24.64 M30.46 39.73 C34.87 34.5, 38.52 29.94, 43.58 24.64" stroke="#fab005" stroke-width="0.5" fill="none"></path><path d="M21.75 -0.41 C26.12 -0.84, 32.07 1.62, 35.81 4.42 C39.56 7.22, 43.26 12.04, 44.2 16.41 C45.14 20.79, 43.81 26.78, 41.46 30.67 C39.11 34.55, 34.49 38.12, 30.13 39.73 C25.77 41.33, 19.86 41.68, 15.29 40.28 C10.72 38.88, 5.15 35.06, 2.69 31.32 C0.24 27.58, -0.26 22.23, 0.55 17.86 C1.36 13.5, 3.96 8.08, 7.56 5.11 C11.16 2.13, 19.54 0.78, 22.13 0.02 C24.72 -0.74, 23.09 0.15, 23.09 0.57 M22.43 -0.73 C27.12 -1.06, 33.44 1.53, 37.09 4.65 C40.75 7.78, 43.6 13.67, 44.37 18.03 C45.14 22.39, 44.23 27.13, 41.73 30.81 C39.23 34.48, 33.95 38.58, 29.37 40.09 C24.79 41.6, 18.73 41.32, 14.26 39.87 C9.78 38.42, 4.75 35.17, 2.51 31.4 C0.27 27.64, -0.25 21.72, 0.8 17.28 C1.86 12.85, 5.3 7.68, 8.83 4.81 C12.37 1.94, 19.65 0.87, 22.03 0.06 C24.41 -0.75, 23.03 -0.46, 23.13 -0.05" stroke="#000000" stroke-width="1" fill="none"></path></g><g stroke-linecap="round" transform="translate(647.8789494550638 712.2256125488834) rotate(0 21.169722164989253 16.71293855130739)"><path d="M1.53 10.6 C1.53 10.6, 1.53 10.6, 1.53 10.6 M1.53 10.6 C1.53 10.6, 1.53 10.6, 1.53 10.6 M1.27 17 C3.28 13.32, 7.77 10.36, 13.73 2.66 M1.27 17 C5.2 12.28, 8.68 8.92, 13.73 2.66 M1.66 22.64 C4.4 17.98, 8.94 14.57, 20.03 1.51 M1.66 22.64 C8.49 14.64, 15.81 5.66, 20.03 1.51 M4.68 25.27 C8.25 20.03, 13.06 14.22, 26.33 0.36 M4.68 25.27 C9.93 19.07, 14.74 13.32, 26.33 0.36 M7.04 28.65 C15.24 18.33, 25.49 9.12, 30.01 2.23 M7.04 28.65 C15.25 18.89, 23.27 9.5, 30.01 2.23 M10.06 31.27 C15.14 25.7, 19.22 20.56, 33.68 4.1 M10.06 31.27 C15.52 24.74, 21.53 17.55, 33.68 4.1 M15.05 31.63 C20.98 24.97, 26.68 19.4, 37.35 5.97 M15.05 31.63 C20.93 24.74, 27 18.67, 37.35 5.97 M19.38 32.75 C24.9 27.32, 29.91 20.47, 39.72 9.35 M19.38 32.75 C25.27 26.05, 30.9 19.55, 39.72 9.35 M24.37 33.11 C28.47 27.55, 34.06 23.44, 41.42 13.48 M24.37 33.11 C29.36 28.12, 33.63 22.22, 41.42 13.48 M32.63 29.69 C35.39 26.15, 38.72 22.64, 41.16 19.88 M32.63 29.69 C35.44 26.08, 38.26 22.98, 41.16 19.88" stroke="#fab005" stroke-width="0.5" fill="none"></path><path d="M24.72 0.05 C29.07 0.45, 34.89 2.88, 37.82 5.65 C40.76 8.42, 42.4 13.08, 42.33 16.66 C42.26 20.24, 40.27 24.4, 37.39 27.14 C34.52 29.89, 29.66 32.47, 25.1 33.12 C20.53 33.77, 13.94 32.78, 10.01 31.05 C6.07 29.31, 2.96 26.07, 1.5 22.72 C0.04 19.36, -0.23 14.35, 1.25 10.93 C2.72 7.51, 6.2 3.92, 10.34 2.2 C14.47 0.48, 23.31 0.72, 26.07 0.6 C28.83 0.49, 26.97 1.34, 26.91 1.51 M24.71 -0.33 C29.11 0.16, 34.38 3.43, 37.43 6.08 C40.49 8.73, 42.97 12.13, 43.04 15.59 C43.11 19.05, 40.78 23.96, 37.86 26.84 C34.94 29.73, 30.01 32.03, 25.5 32.9 C21 33.77, 14.75 33.67, 10.81 32.08 C6.86 30.5, 3.34 26.82, 1.82 23.41 C0.29 20, 0.35 15.1, 1.64 11.62 C2.93 8.13, 5.68 4.47, 9.55 2.49 C13.42 0.51, 22.39 -0.03, 24.86 -0.28 C27.34 -0.52, 24.53 0.59, 24.39 1" stroke="#000000" stroke-width="1" fill="none"></path></g><g stroke-linecap="round"><g transform="translate(593.2833501874593 736.7379224241336) rotate(0 37.882660716296414 -2.2283918068410458)" fill-rule="evenodd"><path d="M-0.39 1.33 C12.63 3.48, 68.72 11.08, 77.73 10.74 C86.75 10.39, 57.54 3.74, 53.69 -0.75 C49.85 -5.24, 63.52 -16.06, 54.67 -16.22 C45.83 -16.37, 9.36 -4.4, 0.62 -1.66" stroke="none" stroke-width="0" fill="#964b00" fill-rule="evenodd"></path><path d="M0.87 -0.09 C13.35 1.47, 66.09 10.14, 74.77 10.48 C83.44 10.81, 56.46 6.27, 52.94 1.92 C49.41 -2.43, 62.49 -15.33, 53.6 -15.61 C44.71 -15.89, 8.68 -2.51, -0.42 0.25 M-0.13 -1.19 C12.72 1.03, 68.28 11.47, 76.95 11.67 C85.62 11.87, 55.82 4.37, 51.88 0 C47.94 -4.36, 61.71 -14.64, 53.32 -14.52 C44.93 -14.39, 10.45 -1.72, 1.55 0.77" stroke="#000000" stroke-width="1" fill="none"></path></g></g><mask></mask><g stroke-linecap="round"><g transform="translate(632.29050749407 725.2879928055168) rotate(0 -57.49007845253982 9.502492306204886)" fill-rule="evenodd"><path d="M0.08 -0.62 C-19.02 4.33, -97.38 24.96, -114.36 27.79 C-131.34 30.63, -103.2 20.53, -101.8 16.39 C-100.4 12.24, -104.75 7.79, -105.96 2.91 C-107.17 -1.96, -111.7 -12.42, -109.06 -12.87 C-106.42 -13.32, -108.48 -2.16, -90.11 0.2 C-71.74 2.56, -14.22 1.74, 1.18 1.31" stroke="none" stroke-width="0" fill="#964b00" fill-rule="evenodd"></path><path d="M-1 -0.66 C-20.4 4.4, -98.18 27.47, -115.53 30.27 C-132.87 33.07, -106.97 20.91, -105.05 16.14 C-103.13 11.38, -103.29 5.95, -104 1.68 C-104.7 -2.59, -111.4 -9.35, -109.3 -9.49 C-107.2 -9.63, -109.59 -0.86, -91.4 0.83 C-73.22 2.52, -15.59 0.82, -0.19 0.65 M0.68 1.6 C-19.01 6.34, -99.54 25.93, -116.76 28.57 C-133.99 31.21, -104.81 21.73, -102.68 17.45 C-100.55 13.17, -103.14 7.86, -103.97 2.91 C-104.79 -2.04, -109.93 -12.25, -107.62 -12.25 C-105.31 -12.25, -108.08 0.91, -90.09 2.89 C-72.09 4.87, -14.74 0.23, 0.35 -0.35" stroke="#000000" stroke-width="1" fill="none"></path></g></g><mask></mask><g stroke-linecap="round" transform="translate(497.83024136126915 724.8128681902053) rotate(0 9.264929998549633 7.601993844963999)"><path d="M1.7 2.8 C1.7 2.8, 1.7 2.8, 1.7 2.8 M1.7 2.8 C1.7 2.8, 1.7 2.8, 1.7 2.8 M0.78 9.95 C3.72 7.45, 5.08 4.36, 9.31 0.14 M0.78 9.95 C4.15 5.77, 7.41 2.19, 9.31 0.14 M3.14 13.33 C7.1 8.81, 10.6 5.01, 13.64 1.26 M3.14 13.33 C5.13 10.54, 7.37 8.24, 13.64 1.26 M6.82 15.2 C8.3 13.17, 10.24 10.46, 16.66 3.88 M6.82 15.2 C8.96 12.47, 11.04 10.51, 16.66 3.88 M12.46 14.81 C14.72 12.27, 16.65 9.54, 18.36 8.01 M12.46 14.81 C14.04 13.32, 15.19 11.61, 18.36 8.01 M2.17 12.74 C2.17 12.74, 2.17 12.74, 2.17 12.74 M2.17 12.74 C2.17 12.74, 2.17 12.74, 2.17 12.74 M10.08 14.32 C7.03 11.98, 4.53 9.9, 1.02 6.44 M10.08 14.32 C6.25 11.28, 3.09 8.07, 1.02 6.44 M14.97 13.27 C10.99 10.35, 7.69 6.87, 2.14 2.11 M14.97 13.27 C11.04 9.44, 6.24 6.14, 2.14 2.11 M18.35 10.9 C13.47 7.42, 9.58 2.92, 6.27 0.41 M18.35 10.9 C15.72 8.35, 12.71 6.23, 6.27 0.41 M17.95 5.26 C16.52 3.81, 14.69 2.45, 11.91 0.01 M17.95 5.26 C16.16 3.79, 14.5 2.28, 11.91 0.01" stroke="#964b00" stroke-width="0.5" fill="none"></path><path d="M7.46 -0.24 C9.35 -0.64, 12.37 0, 14.03 0.82 C15.69 1.64, 16.7 3.1, 17.41 4.69 C18.13 6.28, 18.9 8.8, 18.34 10.36 C17.79 11.93, 15.87 13.3, 14.08 14.1 C12.29 14.9, 9.55 15.36, 7.58 15.14 C5.61 14.93, 3.56 13.94, 2.24 12.81 C0.92 11.67, -0.3 10.04, -0.33 8.31 C-0.37 6.58, 0.62 3.82, 2.02 2.43 C3.42 1.03, 7.11 0.28, 8.06 -0.05 C9 -0.38, 7.77 0.24, 7.69 0.43 M10.66 -0.25 C12.46 -0.05, 15.02 0.9, 16.29 2.28 C17.57 3.65, 18.21 6.23, 18.32 8 C18.43 9.76, 18.06 11.65, 16.97 12.86 C15.88 14.08, 13.88 15.03, 11.77 15.29 C9.67 15.54, 6.11 15.27, 4.35 14.39 C2.58 13.52, 1.83 11.46, 1.19 10.03 C0.55 8.59, 0 7.19, 0.52 5.78 C1.04 4.37, 2.58 2.51, 4.31 1.56 C6.03 0.62, 9.74 0.33, 10.89 0.13 C12.05 -0.08, 11.3 0.28, 11.21 0.31" stroke="#000000" stroke-width="1" fill="none"></path></g><g stroke-linecap="round" transform="translate(662.4609205662728 721.9621204983437) rotate(0 9.264929998549633 7.601993844963999)"><path d="M2.75 2.39 C2.75 2.39, 2.75 2.39, 2.75 2.39 M2.75 2.39 C2.75 2.39, 2.75 2.39, 2.75 2.39 M1.17 10.3 C2.84 7.66, 6.34 4.34, 9.7 0.48 M1.17 10.3 C4.34 6.54, 7.91 3.02, 9.7 0.48 M3.54 13.67 C7.68 9.26, 10.21 4.32, 14.03 1.6 M3.54 13.67 C7.03 9.47, 10.29 5.29, 14.03 1.6 M7.21 15.54 C9.79 11.77, 13.12 8.72, 17.05 4.22 M7.21 15.54 C10.53 12, 14.26 8.03, 17.05 4.22 M12.85 15.15 C14.57 12.76, 16.6 10.02, 18.76 8.36 M12.85 15.15 C14.07 13.59, 15.4 12.22, 18.76 8.36 M1.22 12.32 C1.22 12.32, 1.22 12.32, 1.22 12.32 M1.22 12.32 C1.22 12.32, 1.22 12.32, 1.22 12.32 M9.88 14.55 C6.85 12.35, 4.95 9.43, 0.07 6.02 M9.88 14.55 C7.01 11.86, 3.67 9.14, 0.07 6.02 M14.77 13.5 C10.51 9.69, 6.63 5.88, 2.69 3 M14.77 13.5 C9.86 9.65, 5.55 5.1, 2.69 3 M17.39 10.48 C15.08 8.19, 11.43 6.09, 6.07 0.64 M17.39 10.48 C14.86 8.52, 12.35 6.43, 6.07 0.64 M18.51 6.15 C16.63 4.56, 15.45 3.41, 11.71 0.24 M18.51 6.15 C17 4.89, 15.75 3.48, 11.71 0.24" stroke="#964b00" stroke-width="0.5" fill="none"></path><path d="M8.86 -0.05 C10.64 -0.22, 12.53 0.28, 14.13 1.3 C15.74 2.31, 17.91 4.44, 18.49 6.04 C19.06 7.63, 18.53 9.45, 17.58 10.86 C16.63 12.27, 14.6 13.81, 12.8 14.51 C10.99 15.21, 8.65 15.42, 6.74 15.07 C4.83 14.72, 2.44 13.86, 1.33 12.42 C0.23 10.98, -0.2 8.18, 0.08 6.45 C0.36 4.73, 1.66 3.11, 3.02 2.08 C4.38 1.04, 7.29 0.52, 8.23 0.24 C9.16 -0.04, 8.5 0.23, 8.64 0.4 M7.19 0.03 C8.93 -0.27, 11.3 0.63, 13.12 1.47 C14.93 2.32, 17.16 3.71, 18.09 5.12 C19.02 6.53, 19.41 8.48, 18.7 9.95 C17.99 11.42, 15.48 13.17, 13.83 13.96 C12.18 14.75, 10.66 14.79, 8.8 14.7 C6.94 14.6, 4.16 14.4, 2.7 13.37 C1.23 12.34, 0.11 10.22, 0.02 8.53 C-0.07 6.83, 0.87 4.57, 2.16 3.2 C3.45 1.83, 6.94 0.88, 7.75 0.32 C8.56 -0.23, 7.03 -0.17, 7.04 -0.13" stroke="#000000" stroke-width="1" fill="none"></path></g><g stroke-opacity="0.8" fill-opacity="0.8" stroke-linecap="round" transform="translate(126.75630033511698 195.6690303151595) rotate(0 108.3408760097036 102.32193845360848)"><path d="M36.65 23.91 C36.65 23.91, 36.65 23.91, 36.65 23.91 M36.65 23.91 C36.65 23.91, 36.65 23.91, 36.65 23.91 M3.75 85.03 C27.19 59.8, 49.25 32.23, 74.07 3 M1.25 86.08 C21.43 64.95, 37.49 49.11, 73.84 6.61 M3.32 114.82 C30.57 79.98, 62.39 42.6, 95.18 6.29 M4.84 112.27 C30.58 79.67, 58.62 46.09, 98.59 2.09 M8.06 132.9 C37.45 94.95, 71.22 51.2, 120.12 1.27 M6.96 133.39 C47.96 81.65, 93.95 32.19, 119.59 2.06 M11.71 150.55 C45.45 106.07, 86.72 68.08, 135.08 7.13 M12.75 147.39 C39.57 116.21, 68.7 85.02, 139.99 5 M18.74 163.08 C60.56 118.29, 104.02 70.9, 155.77 8.38 M19.71 166.03 C62.35 119.49, 102.11 72.71, 156.22 11.4 M29.66 177.77 C79.2 118.82, 131.44 60.97, 165.36 19.26 M31.08 174.46 C61.49 143.02, 90.04 110.6, 169.32 17.63 M42.84 181.44 C89.43 130.75, 139.35 78.87, 179.93 27.07 M46.39 184.14 C84.47 140.08, 120.13 95.84, 179.91 27.93 M59.25 192.31 C104.86 136.95, 150.27 87.52, 189.56 39.81 M59.44 191.79 C108.29 132.39, 162.12 75.31, 190.26 39.74 M74.01 199.94 C100.49 166.03, 132.87 135.74, 200.45 50.71 M76.21 200.98 C126.58 140.76, 176.6 83.62, 203.14 52.65 M89.19 203.78 C128.03 166.89, 167.35 121.06, 209.02 70.22 M90.73 204.62 C117.69 175.13, 148.04 143.27, 210.24 70.42 M114.62 200.59 C134.65 176.87, 158.05 147.33, 215.56 85.82 M113.57 205.08 C139.71 169.57, 170.27 135.37, 214.65 85.36 M139.2 199.38 C161.91 168.65, 187.56 145.52, 215.74 107.93 M139.1 199.25 C163.01 169.6, 187.47 142.25, 215.56 111.86 M177.07 183.62 C186.09 172.86, 196.46 158.08, 200.63 147.4 M177.22 180.08 C184.93 167.3, 194.43 157.84, 203.91 149.29" stroke="#ffffff" stroke-width="2" fill="none"></path><path d="M182.09 28.76 C192.55 35.55, 199.79 45.49, 205.55 56.4 C211.32 67.31, 215.55 81.56, 216.67 94.23 C217.79 106.91, 215.83 120.92, 212.29 132.46 C208.75 143.99, 203.19 154.04, 195.41 163.42 C187.64 172.81, 176.97 181.93, 165.65 188.76 C154.33 195.59, 140.38 201.94, 127.48 204.4 C114.58 206.86, 101.15 206.05, 88.25 203.5 C75.35 200.96, 61.51 195.6, 50.08 189.11 C38.65 182.62, 27.31 174.47, 19.66 164.57 C12 154.68, 7.23 142.02, 4.17 129.75 C1.11 117.48, 0.09 103.11, 1.32 90.95 C2.55 78.8, 5.68 67.97, 11.56 56.8 C17.45 45.63, 26.51 32.59, 36.63 23.93 C46.76 15.26, 59.84 8.52, 72.3 4.8 C84.75 1.08, 98.6 1.35, 111.36 1.61 C124.12 1.86, 134.15 -1.44, 148.87 6.33 C163.58 14.09, 189.71 37.1, 199.66 48.21 C209.6 59.32, 210.2 71.83, 208.55 72.99 M154.23 7.22 C165.86 10.92, 173.98 22.13, 182.77 31.26 C191.56 40.4, 201.33 50.88, 206.98 62.05 C212.63 73.22, 215.89 86, 216.69 98.28 C217.5 110.57, 216.07 124.5, 211.79 135.74 C207.51 146.99, 199.39 156.93, 191.01 165.77 C182.64 174.62, 173.16 182.97, 161.52 188.82 C149.87 194.66, 133.81 198.88, 121.17 200.86 C108.52 202.84, 98.11 202.84, 85.66 200.71 C73.21 198.58, 57.11 195.13, 46.46 188.06 C35.81 180.99, 29.1 168.96, 21.77 158.29 C14.44 147.63, 5.55 136.18, 2.48 124.07 C-0.6 111.96, 1.19 97.64, 3.33 85.66 C5.46 73.68, 9.31 62.5, 15.28 52.18 C21.24 41.86, 29.27 31.33, 39.12 23.74 C48.97 16.15, 62.33 10.32, 74.37 6.64 C86.42 2.97, 98.67 1.52, 111.39 1.7 C124.1 1.88, 144.31 6.52, 150.65 7.73 C156.99 8.94, 149.53 6.76, 149.43 8.96" stroke="#000000" stroke-width="4" fill="none"></path></g><g stroke-linecap="round"><g stroke-opacity="0.8" fill-opacity="0.8" transform="translate(235.2618454508356 404.17506274694915) rotate(0 61.2233437147097 55.06699948080859)" fill-rule="evenodd"><path d="M0 0 C0 0, 0 0, 0 0 M0 0 C0 0, 0 0, 0 0 M5.11 19.84 C8.51 13.22, 19.96 2.35, 29.3 -8.17 M0.97 22.1 C8.83 10.47, 17.6 3.29, 28.32 -9.58 M4.58 40.61 C27.62 16.38, 47.43 -4.56, 65.5 -26.39 M6.19 41.93 C22.95 20.52, 41.61 1.3, 67.41 -27.26 M5.13 63.94 C27.33 42.42, 39.95 21.33, 96.78 -44.76 M8.82 63.21 C41.65 25.93, 75.12 -13.93, 100.69 -40.21 M7.26 88.09 C40.11 51.63, 71.67 13.13, 105.13 -25.64 M4.76 89.13 C31.46 60.17, 54.1 36.77, 104.91 -22.03 M-3.67 129.95 C29.5 87.71, 67.57 43.14, 108.53 -1.97 M-2.15 127.4 C29.4 87.67, 63.53 47.08, 111.94 -6.18 M7.63 140.48 C35.84 103.95, 68.4 61.58, 115.76 13.38 M6.54 140.97 C45.99 91.01, 90.44 43.32, 115.23 14.17 M19.16 149.07 C45.6 112.91, 79.24 83.7, 116.29 35.84 M20.2 145.91 C41.3 121.24, 64.44 96.94, 121.2 33.71 M35.18 150.84 C61.9 124.36, 90.3 94.61, 122.67 53.5 M36.28 154.16 C63.9 124.84, 89.14 94.62, 123.17 56.89 M51.87 159.27 C76.98 128.28, 105.16 98.38, 118.01 80.47 M53.46 155.53 C69.92 140.55, 83.43 125.5, 122.46 78.63 M71.66 154.61 C86.99 139.14, 105.99 123.55, 116.98 106.23 M75.66 157.65 C87.28 143.3, 97.36 128.08, 116.95 107.2 M98.21 154.51 C101.68 146.16, 104.71 145.81, 109.52 138.61 M98.42 153.93 C102.18 147.89, 110.29 143.96, 110.29 138.53" stroke="#ffffff" stroke-width="2" fill="none"></path><path d="M2.11 -2.79 C3.58 9.54, 6.9 51.82, 6.82 75.24 C6.74 98.66, -13.71 124.43, 1.6 137.73 C16.9 151.03, 78.49 167.02, 98.63 155.04 C118.78 143.07, 120.27 90.84, 122.46 65.9 C124.64 40.95, 116.61 23.41, 111.73 5.37 C106.85 -12.67, 104.43 -39.14, 93.2 -42.36 C81.97 -45.57, 59.57 -21.27, 44.33 -13.92 C29.09 -6.58, 8.95 -0.6, 1.76 1.72 M-0.19 1.86 C2.37 14.53, 12.13 55.54, 12.28 78.65 C12.42 101.77, -13.64 127.33, 0.66 140.54 C14.95 153.75, 78.34 170.17, 98.06 157.9 C117.78 145.63, 117.49 92.57, 118.99 66.93 C120.49 41.29, 111.31 22.59, 107.06 4.04 C102.81 -14.51, 103.05 -41.35, 93.48 -44.4 C83.9 -47.44, 65.37 -21.54, 49.59 -14.24 C33.8 -6.94, 6.43 -2.81, -1.23 -0.62" stroke="#000000" stroke-width="4" fill="none"></path></g></g><mask></mask><g stroke-linecap="round"><g stroke-opacity="0.8" fill-opacity="0.8" transform="translate(324.01344976357905 360.27172481984144) rotate(0 39.57670228536517 -156.77515912759213)"><path d="M-0.58 2.28 C30.34 -59.96, 59.85 -114.74, 75.07 -152.47 M-1.26 0.64 C31.75 -57.57, 59.33 -116.48, 75.29 -155.52 M76.21 -155.31 C69.39 -193.07, 66.64 -240.98, 67.7 -265.79 M73.7 -155.15 C68.46 -197.01, 63.67 -238.07, 65.19 -261.7 M62.21 -265.41 C70.94 -278.95, 75.2 -293.77, 80.11 -312.59 M64.48 -264.46 C67.93 -281.1, 75.73 -296.93, 78.7 -312.68" stroke="#000000" stroke-width="4" fill="none"></path></g></g><mask></mask><g stroke-linecap="round"><g stroke-opacity="0.8" fill-opacity="0.8" transform="translate(336.97178439790514 82.33350448744477) rotate(275.5398326396393 37.042380352048895 -18.10960817211253)"><path d="M-0.8 -3.05 C18.38 -9.44, 35.63 -16.4, 77.05 -39.49 M1.26 1.23 C29.08 -14.07, 56.5 -29, 75.76 -35.8" stroke="#000000" stroke-width="4" fill="none"></path></g></g><mask></mask><g stroke-linecap="round"><g stroke-opacity="0.8" fill-opacity="0.8" transform="translate(344.4955513330224 66.4081672863731) rotate(275.5398326396393 45.27402043028178 -7.408476070409961)"><path d="M0.66 0.01 C32.68 -2.24, 67.68 -12.47, 93.54 -17.34 M0.86 -0.02 C30.39 -7.4, 61.61 -10.53, 91.27 -14.1" stroke="#000000" stroke-width="4" fill="none"></path></g></g><mask></mask><g stroke-linecap="round"><g stroke-opacity="0.8" fill-opacity="0.8" transform="translate(368.5861228779395 52.54048873727834) rotate(275.5398326396393 44.450856422458855 8.231640078232658)"><path d="M0.29 1.67 C22.92 0.41, 42.84 4.84, 90.18 18.98 M0.51 -1.37 C33.93 6.38, 65.1 12.62, 88.32 16.02" stroke="#000000" stroke-width="4" fill="none"></path></g></g><mask></mask><g stroke-linecap="round"><g stroke-opacity="0.8" fill-opacity="0.8" transform="translate(232.34722850310573 404.17506274694915) rotate(0 -94.33787531737289 -109.78556152112355)"><path d="M2.97 -3.27 C-38 -16.31, -80.63 -26.18, -133.78 -47.96 M1.67 0.42 C-40.28 -16.02, -82.34 -32.03, -134.94 -49.46 M-133.05 -46.48 C-148.78 -83.98, -160.92 -114.3, -188.24 -204.37 M-136.11 -50.51 C-146.78 -83.08, -160.13 -114.04, -185.05 -200.98 M-183.61 -202.55 C-188.34 -206.6, -190.74 -215.21, -192.09 -217.02 M-183.04 -202.85 C-185.93 -207.34, -185.31 -212.49, -187.7 -219.8" stroke="#000000" stroke-width="4" fill="none"></path></g></g><mask></mask><g stroke-opacity="0.8" fill-opacity="0.8" transform="translate(234.87978266223763 265.0221396549164) rotate(341.7186587970266 0.00014445450142375194 0.00014445450142375194)" stroke="none"><path fill="#000000" d="M 6.28,-6.28 Q 6.28,-6.28 7.11,-5.11 7.95,-3.94 8.37,-2.57 8.80,-1.19 8.76,0.23 8.72,1.67 8.22,3.02 7.73,4.37 6.83,5.49 5.93,6.61 4.72,7.38 3.50,8.15 2.11,8.50 0.72,8.85 -0.71,8.73 -2.14,8.61 -3.46,8.05 -4.78,7.48 -5.85,6.52 -6.92,5.56 -7.63,4.31 -8.33,3.06 -8.60,1.65 -8.87,0.23 -8.68,-1.18 -8.49,-2.60 -7.85,-3.89 -7.21,-5.18 -6.19,-6.19 -5.18,-7.21 -3.89,-7.85 -2.60,-8.49 -1.18,-8.68 0.24,-8.87 1.65,-8.60 3.06,-8.33 4.31,-7.62 5.56,-6.92 6.52,-5.85 7.48,-4.78 8.05,-3.46 8.62,-2.14 8.73,-0.70 8.85,0.72 8.50,2.11 8.15,3.51 7.38,4.72 6.61,5.93 5.49,6.83 4.36,7.73 3.02,8.22 1.67,8.72 0.23,8.76 -1.20,8.80 -2.57,8.37 -3.94,7.95 -5.11,7.11 -6.28,6.27 -6.28,6.28 -6.28,6.28 -6.94,5.43 -7.60,4.59 -8.04,3.61 -8.48,2.64 -8.67,1.58 -8.86,0.53 -8.80,-0.53 -8.73,-1.60 -8.41,-2.62 -8.09,-3.64 -7.54,-4.56 -6.99,-5.47 -6.23,-6.23 -5.47,-6.99 -4.56,-7.54 -3.64,-8.10 -2.62,-8.41 -1.60,-8.73 -0.53,-8.80 0.53,-8.86 1.58,-8.67 2.64,-8.48 3.61,-8.04 4.59,-7.60 5.43,-6.94 6.28,-6.28 6.28,-6.28 L 6.28,-6.28 Z"></path></g><g stroke-opacity="0.8" fill-opacity="0.8" transform="translate(291.5515265646427 243.52750027798675) rotate(341.7186587970266 0.00014445450142375194 0.00014445450142375194)" stroke="none"><path fill="#000000" d="M 6.28,-6.28 Q 6.28,-6.28 7.11,-5.11 7.95,-3.94 8.37,-2.57 8.80,-1.19 8.76,0.23 8.72,1.67 8.22,3.02 7.73,4.37 6.83,5.49 5.93,6.61 4.72,7.38 3.50,8.15 2.11,8.50 0.72,8.85 -0.71,8.73 -2.14,8.61 -3.46,8.05 -4.78,7.48 -5.85,6.52 -6.92,5.56 -7.63,4.31 -8.33,3.06 -8.60,1.65 -8.87,0.23 -8.68,-1.18 -8.49,-2.60 -7.85,-3.89 -7.21,-5.18 -6.19,-6.19 -5.18,-7.21 -3.89,-7.85 -2.60,-8.49 -1.18,-8.68 0.24,-8.87 1.65,-8.60 3.06,-8.33 4.31,-7.62 5.56,-6.92 6.52,-5.85 7.48,-4.78 8.05,-3.46 8.62,-2.14 8.73,-0.70 8.85,0.72 8.50,2.11 8.15,3.51 7.38,4.72 6.61,5.93 5.49,6.83 4.36,7.73 3.02,8.22 1.67,8.72 0.23,8.76 -1.20,8.80 -2.57,8.37 -3.94,7.95 -5.11,7.11 -6.28,6.27 -6.28,6.28 -6.28,6.28 -6.94,5.43 -7.60,4.59 -8.04,3.61 -8.48,2.64 -8.67,1.58 -8.86,0.53 -8.80,-0.53 -8.73,-1.60 -8.41,-2.62 -8.09,-3.64 -7.54,-4.56 -6.99,-5.47 -6.23,-6.23 -5.47,-6.99 -4.56,-7.54 -3.64,-8.10 -2.62,-8.41 -1.60,-8.73 -0.53,-8.80 0.53,-8.86 1.58,-8.67 2.64,-8.48 3.61,-8.04 4.59,-7.60 5.43,-6.94 6.28,-6.28 6.28,-6.28 L 6.28,-6.28 Z"></path></g><g stroke-linecap="round"><g stroke-opacity="0.8" fill-opacity="0.8" transform="translate(-12.807312414033731 175.3421965124162) rotate(275.5398326396393 37.042380352048895 -18.10960817211253)"><path d="M2.45 1.72 C17.28 -8.49, 32.11 -14.74, 74.92 -34.77 M1.29 0.22 C23.21 -10.08, 48.33 -22.41, 75.68 -36.16" stroke="#000000" stroke-width="4" fill="none"></path></g></g><mask></mask><g stroke-linecap="round"><g stroke-opacity="0.8" fill-opacity="0.8" transform="translate(-5.283545478911037 159.41685931134498) rotate(275.5398326396393 45.27402043028178 -7.408476070409961)"><path d="M-0.03 1.02 C29.94 -2.81, 66.38 -10.08, 91.98 -15.98 M-1.88 1.75 C23.35 -2.73, 51.75 -8.38, 89.47 -15.82" stroke="#000000" stroke-width="4" fill="none"></path></g></g><mask></mask><g stroke-linecap="round"><g stroke-opacity="0.8" fill-opacity="0.8" transform="translate(18.807026066002436 145.54918076225022) rotate(275.5398326396393 44.450856422458855 8.231640078232658)"><path d="M-2.75 3.34 C31.32 6.65, 62.41 9.68, 88.02 19.05 M-1.63 1.59 C28.93 3.62, 53.9 7.67, 88.33 14.72" stroke="#000000" stroke-width="4" fill="none"></path></g></g><mask></mask><g stroke-linecap="round"><g transform="translate(245.75161875496633 294.68911399490844) rotate(0 22.82308193096833 -2.608352220681809)"><path d="M1 0.25 C12.11 -3.45, 58.26 -26, 66.95 -23.05 C75.64 -20.09, 67.63 14.78, 53.12 17.99 C38.62 21.21, -7.57 -0.31, -20.09 -3.78 M0.07 -0.66 C11.03 -4.66, 57.55 -28.25, 66.23 -24.94 C74.91 -21.64, 66.45 15.45, 52.17 19.17 C37.89 22.9, -7.34 1.52, -19.44 -2.61" stroke="#000000" stroke-width="4" fill="none"></path></g></g><mask></mask><g stroke-linecap="round"><g transform="translate(344.31093695821255 552.3883613023258) rotate(0 17.54623443489072 99.87205067084642)"><path d="M0 0 C24.97 30.72, 47.91 64.12, 62.8 82.19 M0 0 C17.94 25.8, 39.08 50.59, 62.8 82.19 M62.8 82.19 C38.32 103.45, 16.12 128.64, -27.7 175.11 M62.8 82.19 C32.66 113.05, 0.31 145.73, -27.7 175.11 M-27.7 175.11 C-14.11 182.58, -0.94 188.65, 18.05 199.74 M-27.7 175.11 C-17.56 180.45, -5.31 186.81, 18.05 199.74" stroke="#000000" stroke-width="4" fill="none"></path></g></g><mask></mask><g stroke-linecap="round"><g transform="translate(233.20343121963379 525.6211564654968) rotate(0 -38.075428256084706 124.9377786239495)"><path d="M0 0 C-29.3 26.83, -57.78 49.45, -86.63 76.68 M0 0 C-33.41 30.45, -68.34 59.65, -86.63 76.68 M-86.63 76.68 C-63.18 116.97, -34.28 154.74, 10.48 218.95 M-86.63 76.68 C-61.22 114.38, -35.55 151.09, 10.48 218.95 M10.48 218.95 C-0.23 227.99, -13.51 238.15, -26.98 249.88 M10.48 218.95 C3.32 224.5, -5.25 231.65, -26.98 249.88" stroke="#000000" stroke-width="4" fill="none"></path></g></g><mask></mask><g stroke-linecap="round"><g stroke-opacity="0.2" fill-opacity="0.2" transform="translate(258.99716798456393 589.9394059422871) rotate(0 30.4728363854274 3.207666987939774)"><path d="M0.77 0.13 C10.8 1.42, 49.95 6.26, 59.82 7.47 M-0.28 -0.85 C10.13 0.15, 51.5 4.84, 61.94 5.9" stroke="#000000" stroke-width="4" fill="none"></path></g></g><mask></mask><g stroke-linecap="round"><g stroke-opacity="0.2" fill-opacity="0.2" transform="translate(284.6585038880803 589.9394059422871) rotate(0 -9.623000963819322 38.49200385527638)"><path d="M-1.13 1.05 C-4.62 14.02, -17.36 65.28, -20.22 77.94 M0.48 0.56 C-2.72 13.19, -14.85 63.35, -18.02 76.31" stroke="#000000" stroke-width="4" fill="none"></path></g></g><mask></mask><g stroke-linecap="round"><g stroke-opacity="0.2" fill-opacity="0.2" transform="translate(258.99716798456393 615.6007418458044) rotate(0 17.642168433668303 1.603833493969887)"><path d="M-0.45 0.44 C5.59 0.89, 29.82 2.81, 35.72 3.22 M0.32 0.19 C6.37 0.97, 29.83 3.4, 35.52 3.93" stroke="#000000" stroke-width="4" fill="none"></path></g></g><mask></mask><g stroke-opacity="0.3" fill-opacity="0.3" stroke-linecap="round" transform="translate(150.5879574096125 941.8708989600764) rotate(0 126.40719030841046 14.434501445728984)"><path d="M87.44 0.1 C101.59 -0.89, 121.85 -1.34, 138.1 -0.93 C154.36 -0.52, 170.84 1.39, 184.97 2.54 C199.1 3.68, 212.55 4.59, 222.89 5.96 C233.22 7.34, 241.98 9.16, 246.98 10.79 C251.98 12.42, 254.12 14.01, 252.87 15.73 C251.62 17.46, 246.89 19.38, 239.49 21.14 C232.1 22.89, 221.04 25.18, 208.5 26.28 C195.96 27.39, 179.6 27.35, 164.24 27.77 C148.87 28.19, 132.2 28.85, 116.3 28.81 C100.39 28.77, 83.09 28.3, 68.81 27.54 C54.52 26.77, 41 25.56, 30.58 24.21 C20.15 22.85, 11.23 21.25, 6.27 19.41 C1.3 17.57, -0.67 15.23, 0.79 13.18 C2.26 11.14, 7.67 8.75, 15.05 7.14 C22.43 5.53, 31.83 4.52, 45.07 3.53 C58.32 2.53, 85.27 1.75, 94.52 1.17 C103.77 0.59, 99.99 0.06, 100.57 0.05 M109.07 0.05 C123.87 -0.14, 141.62 1.45, 157.07 1.67 C172.52 1.9, 188.87 0.56, 201.78 1.42 C214.68 2.27, 226.09 4.89, 234.52 6.81 C242.95 8.72, 250.01 11.07, 252.37 12.9 C254.73 14.73, 252.6 16.32, 248.68 17.79 C244.76 19.25, 238.46 20.08, 228.87 21.68 C219.27 23.29, 205.22 26.44, 191.12 27.42 C177.02 28.39, 160 27.31, 144.29 27.53 C128.57 27.75, 112.53 28.84, 96.83 28.74 C81.13 28.63, 63.41 27.95, 50.1 26.92 C36.79 25.9, 25.29 24.29, 16.99 22.56 C8.68 20.83, 2.66 18.55, 0.27 16.54 C-2.13 14.54, -1.27 12.34, 2.61 10.56 C6.49 8.77, 13.75 7.02, 23.55 5.84 C33.34 4.66, 47.31 4.41, 61.36 3.49 C75.42 2.56, 100.07 0.69, 107.89 0.27 C115.71 -0.15, 108.12 0.85, 108.29 0.96" stroke="none" stroke-width="0" fill="#ced4da"></path><path d="M91.82 -0.15 C106 -0.7, 124.82 0.26, 141.04 0.61 C157.26 0.95, 175.03 0.99, 189.13 1.93 C203.23 2.88, 215.87 4.95, 225.64 6.27 C235.41 7.59, 243.3 8.24, 247.74 9.87 C252.18 11.5, 254.13 14.09, 252.3 16.05 C250.47 18, 244.74 19.92, 236.75 21.59 C228.77 23.26, 217.14 24.97, 204.42 26.05 C191.7 27.14, 176.12 27.64, 160.43 28.11 C144.75 28.59, 126.52 29.21, 110.3 28.9 C94.09 28.6, 77.22 27.09, 63.14 26.27 C49.06 25.45, 35.65 25.38, 25.82 24.01 C15.99 22.64, 8.24 19.8, 4.17 18.06 C0.1 16.32, -0.55 15.41, 1.39 13.6 C3.32 11.79, 8.01 8.81, 15.79 7.18 C23.58 5.55, 33.24 4.89, 48.07 3.82 C62.89 2.74, 92.96 1.31, 104.74 0.73 C116.52 0.15, 118.25 0.14, 118.75 0.32 M153.53 -0.13 C168.91 -0.23, 184.94 0.45, 198.42 1.83 C211.91 3.22, 225.78 6.72, 234.45 8.17 C243.12 9.62, 247.78 9.07, 250.45 10.53 C253.11 12, 254.04 14.98, 250.44 16.97 C246.84 18.96, 238.12 20.96, 228.84 22.48 C219.56 23.99, 208.51 25.09, 194.78 26.05 C181.05 27.01, 162.65 28.05, 146.47 28.23 C130.28 28.4, 113 27.67, 97.66 27.09 C82.33 26.51, 67.33 25.39, 54.48 24.75 C41.62 24.11, 29.48 24.71, 20.52 23.24 C11.56 21.77, 3.5 18.08, 0.72 15.92 C-2.06 13.76, 0.13 11.73, 3.83 10.28 C7.52 8.83, 13.59 8.45, 22.86 7.22 C32.13 5.99, 45.74 3.94, 59.46 2.9 C73.18 1.87, 89.31 1.56, 105.17 1 C121.02 0.43, 146.51 -0.52, 154.59 -0.47 C162.68 -0.43, 154.36 0.74, 153.68 1.27" stroke="#000000" stroke-width="4" fill="none"></path></g><g stroke-opacity="0.8" fill-opacity="0.8" stroke-linecap="round" transform="translate(842.1161623617427 213.53355462995523) rotate(0 101.38920088147825 95.7564674991736)"><path d="M15.08 43.58 C15.08 43.58, 15.08 43.58, 15.08 43.58 M15.08 43.58 C15.08 43.58, 15.08 43.58, 15.08 43.58 M5.45 80.15 C18.08 66.72, 30.37 54.35, 50.73 25.64 M3.07 80.25 C21.38 61.45, 39.88 41.96, 50.5 27.33 M6.15 104.23 C22.13 83.83, 43.96 58.83, 89.75 9.12 M2.7 103.52 C31.45 73.8, 56.28 42.95, 87.69 11.7 M7.55 120.02 C32.96 99.53, 59.4 67.41, 113.21 5.18 M10.35 122.57 C31.38 99.88, 53.92 74.21, 109.64 6.58 M16.45 139.73 C49.83 100.33, 86.26 63.12, 128.5 7.38 M16.17 139.9 C49.03 101.5, 85.26 64.19, 129.4 8.87 M22.27 159.1 C64.36 111.91, 104.66 61.85, 145.15 12.79 M21.24 158.85 C57.31 115.68, 92.82 74.72, 147.38 14.38 M38.52 168.22 C79.57 114.78, 127.28 53.69, 165.52 18.2 M34.48 165.96 C66.54 132.86, 98.4 98.52, 163.5 19.5 M48.95 175.06 C83.42 140.09, 116.93 96.1, 176.89 29.38 M48.21 176.07 C79.61 140.77, 114.63 103.5, 172.73 30.13 M60.86 186.7 C90.04 151.71, 115.26 121.09, 186.07 44.83 M58.92 189.1 C107.48 132.8, 153.96 80.54, 185.1 42.91 M76.92 188.48 C111.99 144.79, 149.42 101.94, 192.11 59.74 M76.53 190.77 C123.48 146.65, 164.22 96, 193.88 60.8 M93 193.45 C121.47 157.53, 155.86 128.94, 199.79 72.82 M93.67 197.62 C126.28 155.66, 159.81 119.1, 202.51 73.42 M113.05 199.66 C147.46 158.46, 184.88 118.89, 203.59 94.5 M113.93 195.86 C138.45 169.94, 160.36 142.95, 199.98 96.84 M134.98 196.1 C155.19 178.96, 176.56 156.65, 209.6 118.87 M133.25 198.87 C159.54 170, 189.5 137.03, 204.19 115.09" stroke="#ffffff" stroke-width="2" fill="none"></path><path d="M157.18 16.54 C168.04 21.63, 176.46 32.87, 183.67 42.44 C190.89 52.01, 197.42 62.23, 200.48 73.97 C203.54 85.71, 204.23 100.84, 202.03 112.89 C199.84 124.94, 194.27 136.09, 187.31 146.26 C180.36 156.43, 170.84 166.65, 160.28 173.89 C149.72 181.13, 136.63 187.2, 123.98 189.71 C111.33 192.22, 97.05 191.06, 84.36 188.95 C71.68 186.84, 59.1 183.17, 47.86 177.05 C36.62 170.93, 24.3 162.12, 16.92 152.25 C9.54 142.38, 6.19 129.85, 3.57 117.82 C0.96 105.78, -0.63 92.35, 1.24 80.04 C3.1 67.73, 7.49 54.11, 14.76 43.95 C22.03 33.79, 34.17 25.88, 44.86 19.07 C55.54 12.27, 66.37 6.31, 78.87 3.14 C91.37 -0.02, 100.75 -8.29, 119.85 0.06 C138.96 8.42, 180.29 36.16, 193.51 53.28 C206.73 70.39, 200.75 102.03, 199.19 102.75 M75.49 3.52 C87.69 -0.92, 104.17 -2.28, 116.77 -0.65 C129.38 0.99, 140.34 7.02, 151.11 13.31 C161.88 19.61, 173.03 27.39, 181.39 37.12 C189.74 46.86, 198.21 59.99, 201.24 71.71 C204.27 83.43, 201.14 95.46, 199.56 107.44 C197.99 119.41, 197.76 133.35, 191.79 143.56 C185.83 153.77, 174.69 161.56, 163.78 168.7 C152.88 175.83, 138.9 182.94, 126.37 186.36 C113.84 189.78, 101.03 190.58, 88.6 189.22 C76.17 187.85, 63.48 184.04, 51.77 178.17 C40.06 172.31, 26.32 164.08, 18.35 154.05 C10.37 144.02, 7.25 130.24, 3.93 117.98 C0.62 105.72, -3.32 91.92, -1.56 80.49 C0.2 69.06, 8.02 59.38, 14.49 49.39 C20.97 39.4, 27.42 28.49, 37.27 20.54 C47.11 12.6, 67.22 3.83, 73.57 1.73 C79.92 -0.37, 74.32 6.59, 75.38 7.94" stroke="#000000" stroke-width="4" fill="none"></path></g><g stroke-linecap="round"><g stroke-opacity="0.8" fill-opacity="0.8" transform="translate(943.351260104273 408.6608305561099) rotate(0 -57.29495757418954 51.533634191770034)" fill-rule="evenodd"><path d="M-94.94 -36.16 C-94.94 -36.16, -94.94 -36.16, -94.94 -36.16 M-94.94 -36.16 C-94.94 -36.16, -94.94 -36.16, -94.94 -36.16 M-100.21 -4.2 C-97.4 -9.75, -89.64 -18.97, -72.41 -33.62 M-103.2 -1.87 C-98.79 -10.83, -91.81 -16.88, -75.99 -34.05 M-109.55 26.59 C-98.72 10.62, -80.55 0.61, -64.71 -24.79 M-108.28 31.6 C-99.22 17.99, -86.35 3.02, -60.22 -26.6 M-112.21 56.16 C-95.2 34.09, -77.26 11.66, -50.98 -17.21 M-113.44 56.42 C-100.74 41.25, -87.68 23.58, -49.61 -15.46 M-110.48 81.43 C-94.32 59.07, -69.92 33.63, -36.67 -9.64 M-112.5 82.51 C-96.62 64.18, -79.23 43.93, -34.06 -9.17 M-110.25 103.24 C-78.49 69.78, -53.93 37.88, -13.46 -8.32 M-110.3 101.7 C-86.22 78.04, -65.21 51.49, -18.14 -5.69 M-106.04 124.73 C-80.4 92.87, -64.3 65.85, 1.1 2.47 M-106.23 123.62 C-78.44 89.71, -50.47 60.43, -1.3 0.56 M-96 139.89 C-73.57 106.84, -43.46 73.62, -3.76 28.32 M-97.82 139.87 C-70.11 107.74, -39.56 72.92, -3.8 28.24 M-84.77 143.26 C-57.36 112.74, -29.58 85.32, -7.93 53.97 M-86.19 147.29 C-51.85 111.67, -21.85 79.29, -7.11 57.86 M-67.05 144.33 C-40.86 122.78, -26.83 100.02, -5.77 79.07 M-64.12 149.87 C-47.65 129.55, -34.4 114.7, -5.93 81.12 M-39.34 143.88 C-27.59 130.26, -22.82 120.25, -0.71 100.42 M-38.39 144.66 C-31.06 131.89, -22.06 123.66, 0.76 98.75 M-12.86 137.31 C-4.92 131.28, 0.82 123.16, 5.97 115.94 M-11.29 136.75 C-4.01 127.38, 1.8 121, 6.29 118" stroke="#ffffff" stroke-width="2" fill="none"></path><path d="M1.59 1.5 C0.3 13.27, -6.65 51.27, -6.58 72.38 C-6.51 93.49, 16.3 116.11, 2.02 128.17 C-12.27 140.23, -72.56 155.67, -92.29 144.75 C-112.02 133.82, -114.56 86.13, -116.35 62.64 C-118.14 39.16, -107.27 20.98, -103.04 3.82 C-98.8 -13.34, -100.81 -37.57, -90.92 -40.32 C-81.04 -43.07, -58.98 -19.57, -43.73 -12.67 C-28.48 -5.76, -6.44 -1.27, 0.59 1.11 M-0.98 -0.16 C-2.63 10.65, -8.42 46.43, -8.04 68.23 C-7.66 90.02, 15.07 117.41, 1.3 130.6 C-12.46 143.8, -71.7 158.46, -90.61 147.39 C-109.52 136.33, -110.66 88.47, -112.14 64.2 C-113.62 39.93, -103.12 19.6, -99.47 1.77 C-95.82 -16.06, -99.09 -40.37, -90.26 -42.81 C-81.42 -45.24, -61.01 -19.69, -46.47 -12.82 C-31.93 -5.94, -10.69 -3.92, -3.03 -1.56" stroke="#000000" stroke-width="4" fill="none"></path></g></g><mask></mask><g stroke-linecap="round"><g stroke-opacity="0.8" fill-opacity="0.8" transform="translate(860.294388407825 367.5745433448069) rotate(0 -37.03726945938615 -146.7157059039239)"><path d="M2.26 2.88 C-28.3 -47.9, -51.38 -104.78, -68.31 -143.64 M-0.42 0.86 C-20.81 -45.67, -45.16 -92.43, -69.34 -145.55 M-70.66 -142.04 C-69.85 -184, -60.65 -219.1, -61.63 -243.85 M-68.98 -145.65 C-63.77 -176.69, -61.02 -212.39, -61.53 -246.66 M-62.01 -246.88 C-63.84 -261.01, -69.32 -272.93, -72.98 -296.58 M-59.68 -247.67 C-65.65 -260.1, -68.38 -273.01, -73.41 -293.8" stroke="#000000" stroke-width="4" fill="none"></path></g></g><mask></mask><g stroke-linecap="round"><g stroke-opacity="0.8" fill-opacity="0.8" transform="translate(848.1675232603557 107.4701848439804) rotate(84.46016736036067 -34.66556189102357 -16.947608035610983)"><path d="M-1.78 2.88 C-24.62 -13.42, -47.42 -22.2, -68.27 -36.13 M0.42 0.79 C-24.89 -9.99, -47.14 -24.13, -67.6 -32.68" stroke="#000000" stroke-width="4" fill="none"></path></g></g><mask></mask><g stroke-linecap="round"><g stroke-opacity="0.8" fill-opacity="0.8" transform="translate(841.1265176374873 92.56669437893561) rotate(84.46016736036067 -42.3690200890278 -6.933112378204669)"><path d="M0.11 -2.52 C-29.73 -3.33, -61.86 -11.33, -82.91 -14.71 M-1.07 1.13 C-28.47 -5.38, -56.43 -7.62, -83.2 -14.21" stroke="#000000" stroke-width="4" fill="none"></path></g></g><mask></mask><g stroke-linecap="round"><g stroke-opacity="0.8" fill-opacity="0.8" transform="translate(818.5817137954109 79.58883322477732) rotate(84.46016736036067 -41.59867426922756 7.703458198004682)"><path d="M1.67 0.61 C-29.87 2.45, -60.05 9.57, -81.48 16.25 M0.64 -1.3 C-26.69 7.39, -55.14 11.06, -82.09 14.17" stroke="#000000" stroke-width="4" fill="none"></path></g></g><mask></mask><g stroke-linecap="round"><g stroke-opacity="0.8" fill-opacity="0.8" transform="translate(946.0788611177486 408.6608305561099) rotate(0 88.28470050794385 -102.74118837615947)"><path d="M1.06 -2.23 C31.66 -12.25, 61.77 -21.58, 129.07 -48.64 M1.73 1.21 C46.67 -15.26, 91.69 -32.72, 127.3 -45.04 M128.78 -49.34 C150.04 -100.91, 161.56 -155.97, 175.82 -186.91 M127.78 -46.33 C143.48 -85.96, 153.82 -123.58, 172.64 -188.94 M172.06 -185.85 C174.14 -194.12, 172.09 -202.44, 174.43 -205.08 M171.37 -188.8 C173.96 -194.44, 173.24 -198.75, 177.12 -204.66" stroke="#000000" stroke-width="4" fill="none"></path></g></g><mask></mask><g stroke-opacity="0.8" fill-opacity="0.8" transform="translate(943.7088078946181 278.43663270709976) rotate(18.2813412029734 -0.00013518560081138276 0.0001351856012661301)" stroke="none"><path fill="#000000" d="M 6.28,6.28 Q 6.28,6.28 5.11,7.11 3.94,7.95 2.57,8.37 1.19,8.80 -0.23,8.76 -1.67,8.72 -3.02,8.22 -4.37,7.73 -5.49,6.83 -6.61,5.93 -7.38,4.72 -8.15,3.50 -8.50,2.11 -8.85,0.72 -8.73,-0.71 -8.61,-2.14 -8.05,-3.46 -7.48,-4.78 -6.52,-5.85 -5.56,-6.92 -4.31,-7.63 -3.06,-8.33 -1.65,-8.60 -0.23,-8.87 1.18,-8.68 2.60,-8.49 3.89,-7.85 5.18,-7.21 6.19,-6.19 7.21,-5.18 7.85,-3.89 8.49,-2.60 8.68,-1.18 8.87,0.24 8.60,1.65 8.33,3.06 7.62,4.31 6.92,5.56 5.85,6.52 4.78,7.48 3.46,8.05 2.14,8.62 0.70,8.73 -0.72,8.85 -2.11,8.50 -3.51,8.15 -4.72,7.38 -5.93,6.61 -6.83,5.49 -7.73,4.36 -8.22,3.02 -8.72,1.67 -8.76,0.23 -8.80,-1.20 -8.37,-2.57 -7.95,-3.94 -7.11,-5.11 -6.27,-6.28 -6.28,-6.28 -6.28,-6.28 -5.43,-6.94 -4.59,-7.60 -3.61,-8.04 -2.64,-8.48 -1.58,-8.67 -0.53,-8.86 0.53,-8.80 1.60,-8.73 2.62,-8.41 3.64,-8.09 4.56,-7.54 5.47,-6.99 6.23,-6.23 6.99,-5.47 7.54,-4.56 8.10,-3.64 8.41,-2.62 8.73,-1.60 8.80,-0.53 8.86,0.53 8.67,1.58 8.48,2.64 8.04,3.61 7.60,4.59 6.94,5.43 6.28,6.28 6.28,6.28 L 6.28,6.28 Z"></path></g><g stroke-opacity="0.8" fill-opacity="0.8" transform="translate(890.6733974525778 258.32119345712135) rotate(18.2813412029734 -0.00013518560081138276 0.0001351856012661301)" stroke="none"><path fill="#000000" d="M 6.28,6.28 Q 6.28,6.28 5.11,7.11 3.94,7.95 2.57,8.37 1.19,8.80 -0.23,8.76 -1.67,8.72 -3.02,8.22 -4.37,7.73 -5.49,6.83 -6.61,5.93 -7.38,4.72 -8.15,3.50 -8.50,2.11 -8.85,0.72 -8.73,-0.71 -8.61,-2.14 -8.05,-3.46 -7.48,-4.78 -6.52,-5.85 -5.56,-6.92 -4.31,-7.63 -3.06,-8.33 -1.65,-8.60 -0.23,-8.87 1.18,-8.68 2.60,-8.49 3.89,-7.85 5.18,-7.21 6.19,-6.19 7.21,-5.18 7.85,-3.89 8.49,-2.60 8.68,-1.18 8.87,0.24 8.60,1.65 8.33,3.06 7.62,4.31 6.92,5.56 5.85,6.52 4.78,7.48 3.46,8.05 2.14,8.62 0.70,8.73 -0.72,8.85 -2.11,8.50 -3.51,8.15 -4.72,7.38 -5.93,6.61 -6.83,5.49 -7.73,4.36 -8.22,3.02 -8.72,1.67 -8.76,0.23 -8.80,-1.20 -8.37,-2.57 -7.95,-3.94 -7.11,-5.11 -6.27,-6.28 -6.28,-6.28 -6.28,-6.28 -5.43,-6.94 -4.59,-7.60 -3.61,-8.04 -2.64,-8.48 -1.58,-8.67 -0.53,-8.86 0.53,-8.80 1.60,-8.73 2.62,-8.41 3.64,-8.09 4.56,-7.54 5.47,-6.99 6.23,-6.23 6.99,-5.47 7.54,-4.56 8.10,-3.64 8.41,-2.62 8.73,-1.60 8.80,-0.53 8.86,0.53 8.67,1.58 8.48,2.64 8.04,3.61 7.60,4.59 6.94,5.43 6.28,6.28 6.28,6.28 L 6.28,6.28 Z"></path></g><g stroke-linecap="round"><g stroke-opacity="0.8" fill-opacity="0.8" transform="translate(1175.5030997940994 194.51098889469495) rotate(84.46016736036067 -34.66556189102357 -16.947608035610983)"><path d="M1.58 -2.15 C-17.37 -7.88, -41.57 -15.15, -66.9 -30.83 M-0.19 1.45 C-18.12 -11.22, -38.69 -19.39, -70.76 -32.11" stroke="#000000" stroke-width="4" fill="none"></path></g></g><mask></mask><g stroke-linecap="round"><g stroke-opacity="0.8" fill-opacity="0.8" transform="translate(1168.4620941712292 179.60749842965333) rotate(84.46016736036067 -42.3690200890278 -6.933112378204669)"><path d="M2.26 1.28 C-29.92 -1.9, -52.11 -6.75, -85.42 -11.65 M1.87 -0.78 C-19.25 -1.43, -41.8 -3.6, -83.74 -15.26" stroke="#000000" stroke-width="4" fill="none"></path></g></g><mask></mask><g stroke-linecap="round"><g stroke-opacity="0.8" fill-opacity="0.8" transform="translate(1145.917290329162 166.6296372754923) rotate(84.46016736036067 -41.59867426922756 7.703458198004682)"><path d="M-2.59 3.47 C-17.89 7.4, -41.49 10.34, -85.66 15.04 M0.92 0.65 C-32.12 6.87, -60.68 9.44, -81.73 16.87" stroke="#000000" stroke-width="4" fill="none"></path></g></g><mask></mask><g stroke-linecap="round"><g transform="translate(933.5345614407088 306.200030343221) rotate(0 -21.358642498202244 -2.4409877140801655)"><path d="M1.04 0.73 C-9.24 -2.84, -52.92 -24.78, -61.33 -22.17 C-69.73 -19.57, -62.83 13.12, -49.38 16.35 C-35.92 19.58, 7.75 0.62, 19.42 -2.79 M0.13 0.07 C-10.27 -3.25, -53.47 -23.61, -61.79 -20.74 C-70.11 -17.88, -63.36 14.63, -49.79 17.28 C-36.23 19.92, 8.01 -1.35, 19.61 -4.89" stroke="#000000" stroke-width="4" fill="none"></path></g></g><mask></mask><g stroke-linecap="round"><g transform="translate(841.2992862602277 547.3640463136771) rotate(0 -16.420383084897367 93.46377637748355)"><path d="M0 0 C-22.6 31.3, -46.21 59.74, -58.77 76.91 M0 0 C-20.71 28.74, -43.77 57.95, -58.77 76.91 M-58.77 76.91 C-28.27 107.65, -0.62 135.7, 25.93 163.87 M-58.77 76.91 C-36.62 98.2, -16.39 120.71, 25.93 163.87 M25.93 163.87 C14.16 169.2, 0.82 179.1, -16.89 186.93 M25.93 163.87 C12.67 169.74, 0.4 176.79, -16.89 186.93" stroke="#000000" stroke-width="4" fill="none"></path></g></g><mask></mask><g stroke-linecap="round"><g transform="translate(945.2775965127548 522.3143549304009) rotate(0 35.63232444011919 116.92116587145483)"><path d="M0 0 C29.18 26.4, 62.4 55.48, 81.07 71.76 M0 0 C20.77 19.36, 43.14 36.5, 81.07 71.76 M81.07 71.76 C47.58 120.45, 13.19 171.92, -9.81 204.9 M81.07 71.76 C53.8 112.48, 26 153.19, -9.81 204.9 M-9.81 204.9 C2.57 217.43, 15.84 226.68, 25.25 233.84 M-9.81 204.9 C-2.78 210.44, 4.48 216.56, 25.25 233.84" stroke="#000000" stroke-width="4" fill="none"></path></g></g><mask></mask><g stroke-linecap="round"><g stroke-opacity="0.2" fill-opacity="0.2" transform="translate(921.1389107769228 582.5056341292448) rotate(0 -28.517551671206093 3.001847544337579)"><path d="M-0.11 0.87 C-9.54 1.91, -46.52 4.61, -55.91 5.54 M-1.63 0.28 C-11.18 1.55, -47.05 6.16, -56.27 6.83" stroke="#000000" stroke-width="4" fill="none"></path></g></g><mask></mask><g stroke-linecap="round"><g stroke-opacity="0.2" fill-opacity="0.2" transform="translate(897.1241304222222 582.5056341292448) rotate(0 9.005542633012737 36.02217053205027)"><path d="M1.12 -0.47 C4.24 11.46, 15.89 60.17, 18.56 72.43 M0.25 -1.76 C3.27 9.72, 14.68 58.33, 17.9 70.51" stroke="#000000" stroke-width="4" fill="none"></path></g></g><mask></mask><g stroke-linecap="round"><g stroke-opacity="0.2" fill-opacity="0.2" transform="translate(921.1389107769228 606.5204144839436) rotate(0 -16.510161493856685 1.5009237721687896)"><path d="M0.25 0.18 C-5.4 0.8, -27.91 3.09, -33.41 3.49 M-0.28 -0.21 C-5.81 0.29, -26.94 2.24, -32.38 2.78" stroke="#000000" stroke-width="4" fill="none"></path></g></g><mask></mask><g stroke-opacity="0.3" fill-opacity="0.3" stroke-linecap="round" transform="translate(785.9994755706939 911.8554987076263) rotate(0 118.29629298820419 13.508313949519106)"><path d="M160.45 0 C175.39 0.56, 190.15 2.19, 201.49 3.73 C212.82 5.27, 222.78 7.33, 228.48 9.23 C234.17 11.14, 236.51 13.32, 235.66 15.14 C234.8 16.95, 230.55 18.58, 223.34 20.13 C216.13 21.67, 204.78 23.4, 192.42 24.4 C180.05 25.4, 164.47 25.72, 149.17 26.12 C133.86 26.52, 116.39 26.87, 100.56 26.8 C84.73 26.72, 67.79 26.64, 54.19 25.68 C40.6 24.72, 27.84 22.59, 19 21.03 C10.15 19.47, 3.77 18.26, 1.11 16.35 C-1.54 14.43, -1.16 11.42, 3.06 9.52 C7.28 7.63, 16.24 6.44, 26.42 4.98 C36.6 3.52, 49.81 1.49, 64.13 0.78 C78.46 0.08, 95.02 0.54, 112.36 0.75 C129.71 0.97, 157.83 1.94, 168.19 2.07 C178.55 2.21, 175.42 1.48, 174.52 1.55 M168.81 0.2 C183.12 0.51, 195.2 1.77, 205.64 3.44 C216.07 5.11, 226.47 8.38, 231.4 10.23 C236.33 12.09, 236.96 12.76, 235.21 14.56 C233.45 16.36, 228.99 19.39, 220.86 21.05 C212.73 22.7, 199.79 23.52, 186.44 24.47 C173.08 25.42, 156.19 26.6, 140.73 26.75 C125.27 26.89, 109.14 25.77, 93.67 25.36 C78.2 24.95, 60.9 25.3, 47.92 24.29 C34.94 23.28, 23.47 20.89, 15.8 19.31 C8.13 17.72, 3.61 16.52, 1.9 14.76 C0.18 13, 0.63 10.57, 5.49 8.75 C10.35 6.93, 20.16 5.1, 31.04 3.83 C41.93 2.56, 56.07 1.92, 70.81 1.13 C85.55 0.34, 103.48 -1.17, 119.47 -0.93 C135.47 -0.68, 158.96 2.3, 166.79 2.58 C174.62 2.87, 167.11 0.74, 166.45 0.79" stroke="none" stroke-width="0" fill="#ced4da"></path><path d="M148.26 0.88 C163.54 0.87, 178.98 1.1, 191.36 2.18 C203.74 3.26, 215.04 5.51, 222.55 7.38 C230.06 9.24, 235.39 11.63, 236.42 13.39 C237.46 15.14, 234.31 16.33, 228.76 17.9 C223.21 19.47, 214.27 21.35, 203.13 22.82 C191.99 24.28, 176.82 26.14, 161.94 26.71 C147.05 27.27, 129.86 26.26, 113.81 26.22 C97.76 26.18, 80.05 27.12, 65.63 26.47 C51.21 25.82, 37.64 23.96, 27.27 22.34 C16.9 20.71, 7.86 18.49, 3.42 16.71 C-1.02 14.93, -1.78 13.36, 0.62 11.67 C3.02 9.99, 9.17 8.34, 17.81 6.62 C26.46 4.91, 39.06 2.43, 52.48 1.38 C65.91 0.34, 80.82 0.57, 98.35 0.34 C115.88 0.11, 146.18 -0.26, 157.65 0 C169.13 0.25, 167.64 1.66, 167.2 1.88 M131.98 1.5 C147.63 1.4, 165.75 -0.03, 179.79 0.54 C193.82 1.1, 206.99 2.98, 216.18 4.88 C225.37 6.77, 232.09 9.98, 234.91 11.9 C237.72 13.83, 236.86 15.05, 233.05 16.42 C229.24 17.79, 221.46 18.76, 212.04 20.12 C202.63 21.49, 190.51 23.66, 176.56 24.61 C162.61 25.56, 144.61 25.75, 128.35 25.83 C112.09 25.9, 94.22 25.49, 79.01 25.06 C63.79 24.63, 48.83 24.12, 37.05 23.26 C25.27 22.4, 14.3 21.58, 8.33 19.89 C2.35 18.2, 0.99 15.18, 1.21 13.14 C1.43 11.1, 3.13 9.4, 9.65 7.65 C16.16 5.9, 28.28 3.98, 40.3 2.63 C52.33 1.29, 66.35 0.11, 81.81 -0.43 C97.27 -0.97, 124.6 -0.63, 133.05 -0.6 C141.5 -0.58, 132.78 -0.64, 132.5 -0.29" stroke="#000000" stroke-width="4" fill="none"></path></g></svg>