<svg version="1.1" xmlns="http://www.w3.org/2000/svg" viewBox="0 0 214.47213511742666 259.50612449812206" width="643.41640535228" height="778.5183734943662" filter="invert(93%) hue-rotate(180deg)"><!-- svg-source:excalidraw --><metadata></metadata><defs><style class="style-fonts">
      </style></defs><g stroke-linecap="round"><g stroke-opacity="0.7" fill-opacity="0.7" transform="translate(147.47165149278771 40.70615780086018) rotate(0 26.57887719575865 28.500241812319473)" fill-rule="evenodd"><path d="M0 0 C0 0, 0 0, 0 0 M0 0 C0 0, 0 0, 0 0 M-0.26 6.4 C0.81 4.92, 3.68 2.35, 5.64 -0.39 M-0.26 6.4 C1.53 3.86, 3.98 1.44, 5.64 -0.39 M-1.18 13.55 C1.01 8.19, 7.02 5.29, 10.63 -0.03 M-1.18 13.55 C1.39 11.02, 4.34 7.86, 10.63 -0.03 M-1.44 19.95 C2.04 13.85, 6.79 11.92, 16.27 -0.43 M-1.44 19.95 C5.32 12.53, 11.18 5.54, 16.27 -0.43 M-1.7 26.35 C3.65 22.23, 10.54 12.56, 21.26 -0.07 M-1.7 26.35 C5.83 18.68, 12.23 9.11, 21.26 -0.07 M-1.96 32.74 C4.36 24.62, 15.18 16.29, 26.9 -0.46 M-1.96 32.74 C8.75 21.64, 16.72 10.52, 26.9 -0.46 M-2.88 39.9 C7.17 30.35, 16.95 16.26, 31.89 -0.1 M-2.88 39.9 C8.52 25.31, 21.02 11.44, 31.89 -0.1 M-3.14 46.29 C8.08 32.13, 21.52 21.26, 37.53 -0.5 M-3.14 46.29 C13.38 28.72, 28.03 8.75, 37.53 -0.5 M-3.4 52.69 C12.06 34.72, 25.92 18.45, 43.18 -0.89 M-3.4 52.69 C12.92 35.5, 27.42 17.43, 43.18 -0.89 M-2.35 57.58 C14.84 39.59, 30.9 20.62, 48.16 -0.53 M-2.35 57.58 C18.18 33.96, 37.31 10.87, 48.16 -0.53 M3.29 57.19 C15.73 40.35, 30.14 28.18, 53.15 -0.17 M3.29 57.19 C19.79 37.44, 37.2 19, 53.15 -0.17 M8.28 57.55 C19.25 45.7, 27.56 35.69, 53.55 5.47 M8.28 57.55 C17.24 46.49, 28.04 35.16, 53.55 5.47 M13.92 57.15 C25.39 48.11, 32.75 35.99, 53.94 11.11 M13.92 57.15 C24.99 43.86, 35.48 33.61, 53.94 11.11 M19.56 56.76 C32.92 40.15, 45.92 28.21, 54.33 16.76 M19.56 56.76 C30.44 43.4, 40.13 31.92, 54.33 16.76 M24.55 57.12 C30.92 48.37, 39.77 41.8, 54.73 22.4 M24.55 57.12 C32.85 48.91, 39.84 39.2, 54.73 22.4 M30.19 56.72 C35.58 49.51, 40.71 43.26, 55.12 28.04 M30.19 56.72 C37.22 47.36, 46.33 37.51, 55.12 28.04 M35.84 56.33 C40.68 50.12, 47.95 44.65, 55.52 33.69 M35.84 56.33 C40.69 51.22, 45.43 44, 55.52 33.69 M41.48 55.93 C47.67 50.21, 49.28 43.82, 55.91 39.33 M41.48 55.93 C45.03 51.48, 48.92 46.79, 55.91 39.33 M46.47 56.29 C50.22 52.66, 55.76 46.93, 56.96 44.22 M46.47 56.29 C49.6 52.77, 52.5 49.57, 56.96 44.22 M52.11 55.9 C53.55 53.21, 55.78 51.57, 57.36 49.86 M52.11 55.9 C53.51 53.83, 55.56 51.74, 57.36 49.86 M-3.78 57.7 C-3.78 57.7, -3.78 57.7, -3.78 57.7 M-3.78 57.7 C-3.78 57.7, -3.78 57.7, -3.78 57.7 M1.86 57.3 C0.08 55.72, -2.34 54.62, -3.42 52.71 M1.86 57.3 C0.66 56.05, -0.72 55, -3.42 52.71 M8.26 57.56 C4.44 54.75, 4.53 52.98, -3.06 47.72 M8.26 57.56 C5.29 54.05, 1.63 52.53, -3.06 47.72 M13.9 57.17 C8.76 53.38, 7.17 52.12, -2.7 42.74 M13.9 57.17 C6.84 52.19, 0.73 45.06, -2.7 42.74 M19.55 56.77 C13.4 52.36, 9.69 47.04, -2.34 37.75 M19.55 56.77 C14.83 51.23, 9.23 46.91, -2.34 37.75 M25.95 57.04 C13.89 47.45, 5.94 40.04, -1.98 32.76 M25.95 57.04 C16.11 47.69, 5.9 39.05, -1.98 32.76 M31.59 56.64 C25.3 51.23, 16.99 46.18, -1.62 27.77 M31.59 56.64 C21.9 50.34, 13.33 42.48, -1.62 27.77 M37.23 56.25 C29.58 47.51, 21.37 40.58, -1.26 22.79 M37.23 56.25 C27.11 46.75, 17.35 39.32, -1.26 22.79 M42.87 55.85 C31.92 46.74, 19.97 35.31, -0.9 17.8 M42.87 55.85 C30.35 44.68, 17.39 34.19, -0.9 17.8 M49.27 56.11 C35.01 44.5, 23.96 35.21, -0.54 12.81 M49.27 56.11 C36.82 44.8, 22.79 31.91, -0.54 12.81 M54.92 55.72 C36.06 39.05, 18.71 22.24, -0.18 7.83 M54.92 55.72 C36.21 38.66, 17.3 23.11, -0.18 7.83 M57.54 52.7 C42.8 38.7, 27.07 27.28, 0.18 2.84 M57.54 52.7 C41.54 38.33, 26.39 24.78, 0.18 2.84 M56.39 46.4 C41.66 33.02, 29.18 22.12, 2.05 -0.84 M56.39 46.4 C44.7 37.3, 33.24 26.86, 2.05 -0.84 M56 40.76 C42.31 30.95, 33.09 19.31, 8.45 -0.57 M56 40.76 C37.44 23.69, 17.63 9, 8.45 -0.57 M55.6 35.11 C43.3 22.19, 27.84 11, 14.09 -0.97 M55.6 35.11 C46.49 27.53, 39.15 20.45, 14.09 -0.97 M55.21 29.47 C45.71 22.89, 37.78 12.79, 20.49 -0.71 M55.21 29.47 C44.23 19.2, 33.06 10.25, 20.49 -0.71 M54.81 23.83 C46.99 14.88, 36.24 7.85, 26.13 -1.1 M54.81 23.83 C43.04 14.66, 33.28 3.85, 26.13 -1.1 M54.42 18.19 C47.13 10.57, 40.77 6.66, 32.53 -0.84 M54.42 18.19 C46.9 11.63, 39.31 4.07, 32.53 -0.84 M54.02 12.54 C50.61 9.6, 45.29 6.6, 38.17 -1.24 M54.02 12.54 C47.86 8.49, 42.71 3.16, 38.17 -1.24 M53.63 6.9 C51.05 4.94, 49.18 1.99, 44.57 -0.97 M53.63 6.9 C51.13 4.32, 47.53 0.83, 44.57 -0.97 M53.23 1.26 C52.56 0.33, 51.62 -0.28, 50.22 -1.37 M53.23 1.26 C52.72 0.66, 51.95 0.3, 50.22 -1.37" stroke="#40c057" stroke-width="0.5" fill="none"></path><path d="M0 0 C13.21 -0.82, 30.65 -2.39, 52.52 -0.64 M0 0 C11.95 0.46, 25.88 -0.76, 52.52 -0.64 M52.52 -0.64 C53.8 11.55, 56.52 22.88, 57 55.72 M52.52 -0.64 C54.31 21.5, 55.75 42.41, 57 55.72 M57 55.72 C38.35 56.45, 16.97 55, -3.84 57.64 M57 55.72 C39.04 56.6, 19.25 57.37, -3.84 57.64 M-3.84 57.64 C-3.74 35.47, -1.62 14.12, 0 0 M-3.84 57.64 C-3.03 35.26, -1.92 13.92, 0 0 M0 0 C0 0, 0 0, 0 0 M0 0 C0 0, 0 0, 0 0" stroke="#000000" stroke-width="1" fill="none"></path></g></g><mask></mask><g stroke-linecap="round"><g stroke-opacity="0.7" fill-opacity="0.7" transform="translate(173.08984638026595 40.70615780086018) rotate(0 1.9213646165608225 27.859786940132608)"><path d="M0.48 -3.15 C-2.11 18.62, -1.73 40.55, 4.42 59.2 M-1.55 0.08 C0.08 13.4, 0.34 24.89, 3.52 56.65" stroke="#000000" stroke-width="2" fill="none"></path></g></g><mask></mask><g stroke-linecap="round"><g stroke-opacity="0.7" fill-opacity="0.7" transform="translate(146.19074174841444 68.88617217708588) rotate(0 28.1800143762257 -0.6404548721870924)"><path d="M-2.48 -2.78 C12.8 -1.71, 33.32 3.62, 52.68 -4.85 M0.28 1.85 C19.31 1.25, 38.79 0, 56.65 -0.58" stroke="#000000" stroke-width="2" fill="none"></path></g></g><mask></mask><g stroke-linecap="round"><g stroke-opacity="0.8" fill-opacity="0.8" transform="translate(171.7561144765059 40.92954461141244) rotate(0 -12.488870007645346 -12.4888700076458)" fill-rule="evenodd"><path d="M0.05 0.31 L-4.49 -14.89 L-16 -22.9 L-25.4 -25.41 L-20.68 -13.47 L-16.81 -4.66 L-2.38 -0.52 L-10.99 -9.85 L-22.63 -14.82 L-22.54 -19.92 L-13.92 -20.01 L-8.07 -13.91 L-0.91 1.35" stroke="none" stroke-width="0" fill="#fab005" fill-rule="evenodd"></path><path d="M-1.29 -0.81 C-0.41 -1.88, -2.66 -7.55, -2.53 -15.21 M-0.09 0.63 C-1.11 -3.92, -1.86 -8.28, -3.31 -14.49 M-2.36 -13.68 C-7.19 -17.72, -10.64 -20.35, -14.92 -20.74 M-2.67 -14.5 C-7.45 -17.2, -11.1 -19.56, -14.74 -21.23 M-15.31 -22.48 C-18.46 -22.14, -23.07 -23.46, -25.09 -24.68 M-15.16 -21.65 C-17.99 -23.15, -22.15 -23.97, -25.51 -24.94 M-24.09 -24.17 C-23.78 -21.21, -22.24 -16.37, -22.98 -14.15 M-25.49 -25.22 C-24.8 -21.79, -23.4 -19.3, -22.1 -13.87 M-22.38 -13.74 C-20.18 -11.56, -18.72 -9.6, -16.61 -6.05 M-22.54 -13.65 C-20.09 -11.3, -18.03 -9.37, -16.13 -6.71 M-15.56 -5.32 C-12.45 -3.55, -6.95 -2.79, -1.16 0.63 M-16.04 -5.63 C-11.88 -5.85, -8.94 -4.44, 0.33 -0.35 M-0.94 -1.41 C-3.99 -4.96, -8.87 -6.07, -11.07 -8.39 M-0.33 -1.1 C-3.53 -2.85, -6.9 -4.99, -12.03 -8.33 M-11.42 -8.5 C-15.33 -11.73, -17.6 -13.89, -21.33 -16 M-11.78 -8.58 C-14.29 -10.68, -17.79 -12.52, -20.69 -15.88 M-21.25 -15.03 C-21.75 -16.91, -21.76 -18.3, -23.07 -21.53 M-21.33 -15.28 C-21.74 -17.94, -22.04 -20.1, -22.4 -21.65 M-21.94 -22.27 C-19.72 -21.68, -17.09 -20.15, -15.62 -20.18 M-22.28 -21.66 C-20.69 -21.45, -19.36 -20.8, -15.12 -20.19 M-15.82 -19.39 C-12.21 -18.37, -8.4 -15.14, -7.28 -12.3 M-15.73 -20.02 C-12.21 -17.13, -10.17 -15.31, -6.62 -12.38 M-5.01 -11.68 C-2.94 -7.98, -1.27 -3.06, -1.22 0.45 M-5.99 -12.54 C-4.66 -8.75, -1.73 -4.09, -0.44 0.26 M0 0 C0 0, 0 0, 0 0 M0 0 C0 0, 0 0, 0 0" stroke="#000000" stroke-width="1" fill="none"></path></g></g><mask></mask><g stroke-linecap="round"><g stroke-opacity="0.8" fill-opacity="0.8" transform="translate(173.99692702779066 38.76958129703462) rotate(0 11.975285099024404 -14.002583961203527)" fill-rule="evenodd"><path d="M-1.29 -0.8 L0.25 -14.79 L11.37 -26.77 L25.31 -28.36 L23.15 -15.92 L7.97 -5.8 L2.32 -0.55 L7.63 -8.12 L20.78 -17.15 L21.98 -24.82 L11.64 -24.44 L3.27 -11.99 L-1.66 -0.02" stroke="none" stroke-width="0" fill="#fab005" fill-rule="evenodd"></path><path d="M0.2 1.2 C-0.79 -4.37, 1.47 -7.36, 1.57 -13.48 M-0.11 0.32 C0.71 -5.13, 1.11 -11.12, 1.7 -13.56 M1.27 -14.88 C3.82 -17.85, 5.74 -18.06, 12.39 -26.88 M1.06 -14.36 C4.9 -18.53, 8.72 -21.98, 12.26 -26.08 M11.73 -25.43 C13.86 -26.08, 18 -27, 24.1 -28.06 M12.08 -26.64 C14.92 -26.95, 18.25 -27.51, 23.76 -28.77 M23.96 -28.39 C24.77 -24.57, 23.35 -23.18, 23.42 -17.71 M23.15 -28.06 C23.86 -25.32, 23.98 -22.53, 24.13 -18.07 M24.25 -18.59 C19.11 -16.09, 15.1 -10.46, 10.16 -6.8 M24.64 -17.93 C21.82 -16.08, 17.94 -13.42, 9.72 -6.53 M9.39 -4.9 C7.21 -3.45, 3.66 -0.99, 0.34 -0.69 M10.32 -6.16 C7.21 -4.15, 4.87 -1.78, 1.63 -0.11 M1.96 -0.65 C3.9 -1.16, 6.4 -4, 8.92 -8.63 M1.35 0.22 C4.36 -2.93, 7.38 -5.99, 9.25 -9 M8.67 -9.73 C13.5 -13.5, 16.89 -16.73, 20.89 -19.42 M9.89 -8.33 C11.62 -10.91, 15.63 -14.7, 20.45 -18.84 M20.66 -19.01 C20.77 -21.11, 20.05 -23.26, 20.98 -24.54 M20.82 -19.12 C20.89 -20.76, 20.7 -22.62, 20.8 -24.67 M20.45 -25.32 C18.06 -24.18, 15.78 -24.21, 12.73 -23.3 M20.7 -24.71 C17.68 -23.95, 15.23 -23.96, 13.49 -23.11 M13.29 -24.4 C10.48 -19.51, 5.05 -14.83, 4.18 -12.45 M13.82 -22.68 C10.78 -20.63, 8.58 -18.02, 4.61 -12.69 M5.17 -13.23 C3.82 -10.27, 1.44 -7.51, 0.81 0.13 M3.63 -13.81 C2.82 -8.92, 0.81 -3.43, -0.39 -0.1 M0 0 C0 0, 0 0, 0 0 M0 0 C0 0, 0 0, 0 0" stroke="#000000" stroke-width="1" fill="none"></path></g></g><mask></mask><g stroke-opacity="0.8" fill-opacity="0.8" stroke-linecap="round" transform="translate(38.478891782520805 20.948477268461374) rotate(0 37.5 35.416666666666515)"><path d="M8.16 13.72 C8.16 13.72, 8.16 13.72, 8.16 13.72 M8.16 13.72 C8.16 13.72, 8.16 13.72, 8.16 13.72 M-0.13 34.71 C5.75 24.43, 10.62 16.64, 31.42 1.45 M0.24 35.56 C8.05 27.99, 13.75 17.88, 28.65 0.51 M5.79 41.98 C13.39 35.7, 18.71 24.54, 42.35 -1.43 M5.04 45.5 C8.64 35.61, 16.25 28.63, 40 3.41 M3.11 55.58 C12.5 44.1, 28.2 34.27, 51.48 1.61 M3.97 53.57 C18.04 37.88, 32.17 22.39, 51.65 2.7 M13.68 56.95 C19.88 45.74, 30.56 31.29, 54.94 5.98 M13.37 60.05 C25.71 42.2, 38.36 30.61, 55.38 4.85 M20.12 61.59 C31.5 46.86, 46.92 26.15, 64.81 14.47 M18.54 62.74 C31.52 47.55, 47.8 30.24, 64.05 13.16 M21.35 68.15 C33.99 51.12, 51.81 35.32, 67.56 13.4 M24.7 69.52 C36.77 51.97, 51.83 37.83, 67.46 17.51 M35.64 69.29 C44.13 55.81, 60.9 34.21, 74.51 24.79 M33.43 70.84 C50.66 52.75, 63.81 36.47, 74.25 26.08 M48.47 71.35 C58.24 55.21, 70.91 37.06, 76.74 36.15 M46.06 66.96 C52.85 57.66, 62.36 45.48, 76.22 32.71 M62.43 59.1 C65.06 59.01, 67.26 56.19, 68.12 52.6 M62.63 60.33 C63.75 58.8, 65.72 57.77, 67.62 54.18" stroke="#ffffff" stroke-width="1" fill="none"></path><path d="M8.36 13.49 C12.5 8.27, 22.16 2.89, 29.53 0.97 C36.9 -0.94, 45.86 -0.57, 52.57 1.99 C59.29 4.55, 65.97 10.51, 69.82 16.33 C73.67 22.14, 76.36 29.9, 75.66 36.87 C74.96 43.84, 70.28 52.96, 65.61 58.15 C60.94 63.34, 54.34 66.18, 47.63 68 C40.93 69.83, 32.35 71.56, 25.38 69.11 C18.41 66.66, 10 59.5, 5.8 53.31 C1.6 47.13, -0.63 38.92, 0.19 32.01 C1.02 25.09, 8.23 15.9, 10.74 11.84 C13.26 7.78, 14.6 7.23, 15.27 7.65 M15.97 4.47 C21.76 1.22, 31.15 1.71, 38.89 2.39 C46.63 3.06, 56.79 4.89, 62.42 8.51 C68.04 12.14, 71.26 17.64, 72.64 24.13 C74.03 30.63, 72.73 41.17, 70.73 47.49 C68.73 53.81, 66.12 58.24, 60.65 62.07 C55.17 65.91, 45.46 70.06, 37.88 70.48 C30.3 70.9, 21.12 68.82, 15.17 64.58 C9.21 60.34, 4.67 51.83, 2.13 45.04 C-0.42 38.26, -2.76 30.65, -0.1 23.89 C2.57 17.13, 15.61 7.38, 18.13 4.5 C20.64 1.63, 15.41 5.86, 15.01 6.64" stroke="#000000" stroke-width="2" fill="none"></path></g><g stroke-linecap="round"><g stroke-opacity="0.8" fill-opacity="0.8" transform="translate(61.395558449188684 91.7818106017935) rotate(0 15.65147825132226 28.428002989955985)" fill-rule="evenodd"><path d="M0 0 C0 0, 0 0, 0 0 M0 0 C0 0, 0 0, 0 0 M-0.75 15.38 C1.8 13.15, 5.69 6.66, 7.44 0.88 M-3.11 13.83 C1.99 11.07, 5.22 4.33, 12.13 1.33 M-3.01 29.73 C0.87 18.16, 12.59 8.85, 18.43 -2.43 M-6.6 32.7 C-1.79 24.8, 4.37 16.42, 22 -1.43 M-8.44 39.66 C9.74 28.62, 18.46 9.65, 34.09 -5.56 M-6.59 41.67 C9.12 23.88, 23.54 7.6, 35.71 -2.57 M-3.44 51.79 C8.16 38.23, 12.33 29.8, 37.15 9.63 M-5.78 55.37 C12.73 36.94, 26.8 16.31, 36.62 4.48 M2.95 63.98 C15.81 44.37, 27.88 32.89, 37.5 14.75 M0.41 61.35 C14.24 47, 23.7 33.31, 38.11 19.54 M5.55 62.49 C14.65 53.99, 23.7 43.15, 40.37 32.77 M9.82 64.79 C17.98 49.12, 31.72 39.01, 37.19 31.03 M20.18 59.16 C25.87 60.54, 30.33 52.73, 36.65 41.57 M20.07 63.24 C25.56 58.83, 30.1 51.11, 40.28 39.16 M31.08 61.34 C32.31 56.8, 36.64 58.44, 41.54 52.01 M31.34 63.4 C32.62 59.22, 38.37 55.97, 39.84 51.65" stroke="#ffffff" stroke-width="1" fill="none"></path><path d="M-2.5 1.31 C-4.36 7.41, -9.18 23.75, -8.7 34.03 C-8.22 44.32, -7.3 58.42, 0.39 63 C8.09 67.58, 31.51 67.82, 37.47 61.51 C43.44 55.19, 36.11 35.8, 36.16 25.12 C36.21 14.44, 41.11 1.89, 37.77 -2.57 C34.43 -7.04, 22.3 -2.18, 16.12 -1.68 C9.95 -1.18, 3.8 -0.12, 0.74 0.44 M1.34 -0.44 C0.13 6.38, -3.05 27.84, -3.47 37.72 C-3.9 47.61, -8.09 55.7, -1.2 58.87 C5.69 62.05, 32.25 62.15, 37.86 56.8 C43.47 51.44, 31.87 36.96, 32.44 26.75 C33.02 16.54, 43.83 -0.52, 41.33 -4.49 C38.82 -8.46, 24.52 2.21, 17.42 2.94 C10.32 3.67, 1.42 0.47, -1.28 -0.12" stroke="#000000" stroke-width="2" fill="none"></path></g></g><mask></mask><g stroke-linecap="round"><g stroke-opacity="0.8" fill-opacity="0.8" transform="translate(59.49997323432399 94.7715651914391) rotate(0 -24.007057597196763 30.231109566839677)"><path d="M0.16 0.56 C-6.09 6.23, -16.42 13.59, -46.15 36.15 M0.53 0.31 C-17.8 12.61, -31.71 23.01, -49.5 35.71 M-46.53 34.23 C-36.43 39.56, -31.65 35.75, -8.11 41.8 M-46.85 36.19 C-37.85 35.58, -27.76 38.34, -3.23 40.84 M-2.98 43.62 C-11.23 45.98, -16.67 57.58, -24.52 57.76 M-4.12 41.24 C-11.04 49.58, -14.47 54.17, -22.62 62.37" stroke="#000000" stroke-width="2" fill="none"></path></g></g><mask></mask><g stroke-linecap="round"><g stroke-opacity="0.8" fill-opacity="0.8" transform="translate(101.58641988619638 88.8438966489216) rotate(0 26.97089186845551 22.228757034440605)"><path d="M3.69 -0.52 C11.17 9.15, 17.21 20.29, 35.79 43.87 M-1.6 1.21 C9.24 10.46, 15.57 21.79, 32.71 44.18 M36.61 47.56 C39.1 29.22, 45.42 17.48, 51.91 9.44 M33.76 43.38 C40.07 31, 50.3 16, 55.14 9.27" stroke="#000000" stroke-width="2" fill="none"></path></g></g><mask></mask><g stroke-linecap="round"><g stroke-opacity="0.8" fill-opacity="0.8" transform="translate(160.86310531137133 95.36433204569266) rotate(0 13.930021074917022 0.8891502813776242)"><path d="M-0.07 0.48 C2.37 0.73, 10.06 1.98, 14.73 2.03 C19.4 2.09, 25.76 1.08, 27.94 0.79 M-0.77 0.25 C1.58 0.57, 9.52 1.27, 14.25 1.2 C18.99 1.13, 25.37 -0.08, 27.63 -0.18" stroke="#000000" stroke-width="2" fill="none"></path></g></g><mask></mask><g stroke-linecap="round"><g stroke-opacity="0.8" fill-opacity="0.8" transform="translate(159.67757160286783 95.9570988999426) rotate(0 13.633637647790238 4.742134834013996)"><path d="M-0.09 0.26 C2.21 1.39, 9.17 5.82, 13.71 7.31 C18.26 8.79, 24.9 8.8, 27.19 9.18 M-0.8 -0.09 C1.44 1.12, 8.72 4.82, 13.32 6.44 C17.92 8.06, 24.42 9.01, 26.8 9.62" stroke="#000000" stroke-width="2" fill="none"></path></g></g><mask></mask><g stroke-linecap="round"><g stroke-opacity="0.8" fill-opacity="0.8" transform="translate(159.67757160286783 100.10646687970666) rotate(0 9.780653095153866 6.520435396769244)"><path d="M0.08 0.19 C1.66 1.88, 6.13 8.21, 9.4 10.37 C12.67 12.52, 18.09 12.63, 19.71 13.13 M-0.54 -0.18 C0.97 1.55, 5.6 8.58, 8.93 10.91 C12.26 13.23, 17.75 13.53, 19.43 13.77" stroke="#000000" stroke-width="2" fill="none"></path></g></g><mask></mask><g stroke-linecap="round"><g stroke-opacity="0.8" fill-opacity="0.8" transform="translate(58.90720638007042 151.67718319960886) rotate(0 -10.077036522279741 44.457514068881665)"><path d="M-2.21 1.06 C2.68 21.8, 5.97 51.16, 4.12 76.46 M1.5 0.74 C-0.54 25.54, 3.14 47.65, 3.62 77.75 M7.89 81.75 C-2.35 80.81, -14 82.07, -25.08 91.94 M5.3 80.31 C-0.84 81.32, -9.07 83.77, -23.89 87.92" stroke="#000000" stroke-width="2" fill="none"></path></g></g><mask></mask><g stroke-linecap="round"><g stroke-opacity="0.8" fill-opacity="0.8" transform="translate(101.58641988619638 152.2699500538606) rotate(0 12.448103939286739 47.42134834014041)"><path d="M0.63 -3.19 C1.89 23.67, -0.82 42.01, 1.48 75.5 M-0.67 1.11 C3.07 21.38, 0.74 43.45, 0.75 77.82 M2.44 77.59 C6.37 80.72, 15.43 91.16, 21.21 97.24 M1.66 78.81 C6.53 83.71, 15.99 86.89, 23.54 94.88" stroke="#000000" stroke-width="2" fill="none"></path></g></g><mask></mask><g stroke-opacity="0.8" fill-opacity="0.8" transform="translate(66.09065382410881 43.99423883015561) rotate(0 0.34750047466059186 0.34750047466081924)" stroke="none"><path fill="#000000" d="M 2.04,-1.25 Q 2.04,-1.25 2.27,-0.94 2.49,-0.63 2.60,-0.27 2.71,0.08 2.70,0.46 2.69,0.83 2.56,1.19 2.43,1.54 2.19,1.84 1.95,2.13 1.63,2.34 1.32,2.54 0.95,2.63 0.58,2.72 0.21,2.69 -0.16,2.66 -0.51,2.51 -0.85,2.36 -1.13,2.11 -1.41,1.86 -1.60,1.53 -1.79,1.20 -1.86,0.83 -1.93,0.46 -1.88,0.08 -1.83,-0.28 -1.66,-0.62 -1.49,-0.96 -1.22,-1.22 -0.96,-1.49 -0.62,-1.66 -0.28,-1.83 0.08,-1.88 0.46,-1.93 0.83,-1.86 1.20,-1.79 1.53,-1.60 1.86,-1.41 2.11,-1.13 2.36,-0.85 2.51,-0.50 2.66,-0.16 2.69,0.21 2.72,0.58 2.63,0.95 2.54,1.32 2.33,1.64 2.13,1.95 1.84,2.19 1.54,2.43 1.19,2.56 0.83,2.69 0.46,2.70 0.08,2.71 -0.27,2.60 -0.63,2.49 -0.94,2.26 -1.25,2.04 -1.25,2.04 -1.25,2.04 -1.47,1.87 -1.70,1.69 -1.88,1.46 -2.05,1.23 -2.17,0.96 -2.29,0.70 -2.34,0.42 -2.39,0.13 -2.37,-0.15 -2.36,-0.44 -2.27,-0.71 -2.18,-0.99 -2.03,-1.24 -1.88,-1.48 -1.67,-1.69 -1.47,-1.89 -1.22,-2.04 -0.97,-2.19 -0.69,-2.27 -0.42,-2.36 -0.13,-2.37 0.15,-2.39 0.43,-2.34 0.72,-2.28 0.98,-2.16 1.25,-2.04 1.65,-1.65 L 2.04,-1.25 Z"></path></g><g stroke-opacity="0.8" fill-opacity="0.8" transform="translate(87.35459818904201 43.83604508271719) rotate(0 0 -0.721266575300433)" stroke="none"><path d="" stroke="#ffffff" stroke-width="0.5" fill="none"></path><path fill="#000000" d="M 2.12,-0.66 Q 2.12,-0.66 2.15,-0.13 2.18,0.40 1.96,0.88 1.74,1.36 1.32,1.69 0.91,2.02 0.38,2.12 -0.13,2.21 -0.64,2.05 -1.14,1.90 -1.52,1.52 -1.90,1.14 -2.05,0.64 -2.21,0.13 -2.12,-0.38 -2.02,-0.91 -1.69,-1.32 -1.36,-1.74 -0.88,-1.96 -0.39,-2.18 0.13,-2.15 0.66,-2.11 1.11,-1.84 1.57,-1.56 1.84,-1.11 L 2.12,-0.66 Z"></path></g><g stroke-linecap="round"><g stroke-opacity="0.8" fill-opacity="0.8" transform="translate(71.07285086936281 64.77413850476705) rotate(180.707313349537 6.61691840399817 -2.4813444014994275)"><path d="M-0.41 0.04 C0.32 -0.79, 2.16 -4.88, 4.5 -5.04 C6.85 -5.19, 12.22 -1.61, 13.65 -0.9 M0.38 -0.41 C1.26 -1.15, 3.31 -4.14, 5.5 -4.38 C7.69 -4.62, 12.25 -2.29, 13.51 -1.86" stroke="#000000" stroke-width="1" fill="none"></path></g></g><mask></mask></svg>